<svg id="Laag_1" data-name="Laag 1" xmlns="http://www.w3.org/2000/svg" viewBox="0 0 445.79 328.21"><defs><style>.cls-1,.cls-3{fill:#4d5f28;}.cls-2{fill:#fff;}.cls-3{font-size:60px;font-family:DMSerifDisplay-Regular, DM Serif Display;}.cls-4{letter-spacing:-0.12em;}.cls-5{letter-spacing:0em;}.cls-6{letter-spacing:-0.01em;}.cls-7{letter-spacing:-0.01em;}.cls-8{letter-spacing:0.01em;}.cls-9{letter-spacing:-0.02em;}.cls-10,.cls-11{isolation:isolate;}.cls-11{font-size:20px;fill:#819d62;font-family:HelveticaNeue, Helvetica Neue;}.cls-12{letter-spacing:-0.02em;}.cls-13{letter-spacing:0em;}.cls-14{letter-spacing:-0.03em;}</style></defs><circle class="cls-1" cx="223.01" cy="107.78" r="107.78"/><rect class="cls-2" x="217.89" y="20.76" width="10.24" height="174.04"/><rect class="cls-2" x="415.83" y="174.16" width="10.24" height="174.04" transform="translate(484.2 -315.89) rotate(90)"/><rect class="cls-2" x="415.83" y="176.89" width="10.24" height="174.04" transform="translate(111.98 -376.49) rotate(45)"/><rect class="cls-2" x="415.83" y="176.89" width="10.24" height="174.04" transform="translate(707.28 -3.26) rotate(135)"/><rect class="cls-2" x="422.65" y="182.88" width="10.24" height="28.84" transform="translate(-41.97 -343.58) rotate(30)"/><rect class="cls-2" x="409" y="182.88" width="10.24" height="28.84" transform="translate(673.48 4.98) rotate(150)"/><rect class="cls-2" x="422.65" y="316.91" width="10.24" height="28.84" transform="translate(-306.29 102.14) rotate(-30)"/><rect class="cls-2" x="409" y="316.91" width="10.24" height="28.84" transform="translate(409.16 669.2) rotate(-150)"/><rect class="cls-2" x="466.04" y="208.94" width="10.24" height="28.84" transform="translate(367.03 -445.68) rotate(75)"/><rect class="cls-2" x="456.38" y="199.28" width="10.24" height="28.84" transform="translate(654.04 383.44) rotate(-165)"/><rect class="cls-2" x="364.08" y="207.4" width="10.24" height="28.84" transform="translate(481.09 -233.52) rotate(105)"/><rect class="cls-2" x="373.73" y="197.75" width="10.24" height="28.84" transform="translate(-239.94 -50.85) rotate(-15)"/><rect class="cls-2" x="481.08" y="253.68" width="10.24" height="28.84" transform="translate(763.56 -175.04) rotate(120)"/><rect class="cls-2" x="481.08" y="240.03" width="10.24" height="28.84" transform="translate(311.01 646.61) rotate(-120)"/><rect class="cls-2" x="353.53" y="253.59" width="10.24" height="28.84" transform="translate(213.5 -332.73) rotate(60)"/><rect class="cls-2" x="353.53" y="239.94" width="10.24" height="28.84" transform="translate(-238.89 281.65) rotate(-60)"/><rect class="cls-2" x="467.57" y="291.59" width="10.24" height="28.84" transform="translate(-143.16 527.26) rotate(-75)"/><rect class="cls-2" x="457.92" y="301.24" width="10.24" height="28.84" transform="matrix(-0.97, 0.26, -0.26, -0.97, 794.07, 344.59)"/><rect class="cls-2" x="366.47" y="289.2" width="10.24" height="28.84" transform="translate(-23.45 585) rotate(-105)"/><rect class="cls-2" x="376.12" y="298.85" width="10.24" height="28.84" transform="translate(-103.86 -244.13) rotate(15)"/><text class="cls-3" transform="translate(0.24 282.28)"><tspan class="cls-4">V</tspan><tspan class="cls-5" x="30.72" y="0">A</tspan><tspan x="69.48" y="0">N </tspan><tspan class="cls-6" x="121.74" y="0">E</tspan><tspan x="154.38" y="0">CHE</tspan><tspan class="cls-7" x="265.32" y="0">L</tspan><tspan class="cls-8" x="297.18" y="0">P</tspan><tspan class="cls-9" x="331.44" y="0">O</tspan><tspan x="370.62" y="0">EL</tspan></text><g id="IJs-_en_Diepvriesproducten_Feestverzorgingen" data-name="IJs- en Diepvriesproducten Feestverzorgingen" class="cls-10"><text class="cls-11" transform="translate(7.35 318.59)">IJs- en Diepvriesp<tspan class="cls-12" x="161.14" y="0">r</tspan><tspan class="cls-13" x="167.44" y="0">oducten &amp; Feestverzo</tspan><tspan class="cls-14" x="362.25" y="0">r</tspan><tspan x="368.35" y="0">gingen</tspan></text></g></svg>