<?xml version="1.0" encoding="utf-8"?>
<!-- Generator: Adobe Illustrator 26.0.2, SVG Export Plug-In . SVG Version: 6.00 Build 0)  -->
<svg version="1.1" id="Laag_1" xmlns="http://www.w3.org/2000/svg" xmlns:xlink="http://www.w3.org/1999/xlink" x="0px" y="0px"
	 viewBox="0 0 841.89 595.28" style="enable-background:new 0 0 841.89 595.28;" xml:space="preserve">
<style type="text/css">
	.st0{fill:#8FAA70;}
	.st1{fill:#819D62;}
	.st2{fill:#4C5F28;}
	.st3{fill:#D7D7D7;}
	.st4{fill:#FEFEFE;}
	.st5{fill:#E0E0E0;}
	.st6{fill:#B8B8B8;}
	.st7{fill:#D9D9D9;}
	.st8{fill:#636363;}
	.st9{fill:#A1C11A;}
	.st10{fill:#B9B9B9;}
	.st11{fill:#DFCED2;}
	.st12{fill:#D8262A;}
	.st13{fill:#B9B5B6;}
	.st14{fill:#414041;}
	.st15{fill:#6E6768;}
	.st16{fill:#6A6666;}
	.st17{fill:#6B6667;}
	.st18{fill:#74696B;}
	.st19{fill:#FAACBA;}
	.st20{fill:#151515;}
	.st21{fill:#4B4B4B;}
	.st22{fill:#878787;}
	.st23{fill:#9C9C9C;}
	.st24{fill:#A09FA0;}
	.st25{fill:#888888;}
	.st26{fill:#9D9D9D;}
	.st27{fill:#9E9E9E;}
	.st28{fill:#BBBBBB;}
	.st29{fill:#E2E1E1;}
	.st30{fill:#BABABA;}
	.st31{fill:#C3C3C3;}
	.st32{fill:#B2B2B2;}
	.st33{fill:#7F7F7F;}
	.st34{fill:#E1E0E2;}
	.st35{fill:#EDEDED;}
	.st36{fill:#BCBCBC;}
	.st37{fill:#D7D6D7;}
	.st38{fill:#FDFCFC;}
	.st39{fill:#656464;}
	.st40{fill:#AEAEAE;}
	.st41{fill:#EFEEEF;}
	.st42{fill:#3F3F3F;}
	.st43{fill:#2F2F2F;}
	.st44{fill:#A09F9F;}
	.st45{fill:#B7B7B7;}
	.st46{fill:#D5D5D5;}
	.st47{fill:#AAAAAA;}
	.st48{fill:#404040;}
	.st49{fill:#B6B5B5;}
	.st50{fill:#AF919B;}
	.st51{fill:#9B9396;}
	.st52{fill:#B6B6B6;}
	.st53{fill:#B1B1B1;}
	.st54{fill:#F5F5F5;}
	.st55{opacity:0.25;fill:#8FAA70;}
	.st56{fill:#D6D6D6;}
	.st57{fill:#A2A2A2;}
	.st58{fill:#A3A3A3;}
	.st59{fill:#E5E5E5;}
	.st60{fill:#D8D8D8;}
	.st61{fill:#F4F4F4;}
	.st62{fill:#EEEEEE;}
	.st63{fill:#F2F2F2;}
	.st64{fill:#EFEFEF;}
	.st65{fill:#AEADAE;}
	.st66{fill:#C8C8C8;}
	.st67{fill:#ADADAD;}
	.st68{fill:#CBCBCB;}
	.st69{fill:#303030;}
	.st70{fill:#2A2A2A;}
	.st71{fill:#292929;}
	.st72{fill:#828282;}
	.st73{fill:#2A292A;}
	.st74{fill:#8F8F8F;}
	.st75{fill:#7B7B7B;}
	.st76{fill:#BDBDBD;}
	.st77{fill:#727272;}
	.st78{fill:#ACACAC;}
	.st79{fill:#505050;}
	.st80{fill:#4E4E4E;}
	.st81{fill:#525252;}
	.st82{fill:#515151;}
	.st83{fill:#4F4F4F;}
	.st84{fill:#9D848C;}
	.st85{fill:#AC959D;}
	.st86{fill:#535353;}
	.st87{fill:#4D4D4D;}
	.st88{fill:#545454;}
	.st89{fill:#B2B1B2;}
	.st90{fill:#858585;}
	.st91{fill:#908F8F;}
	.st92{fill:#C23634;}
	.st93{fill:#C33E3C;}
	.st94{fill:#CECDCC;}
	.st95{fill:#313131;}
	.st96{fill:#2C2C2C;}
	.st97{fill:#444444;}
	.st98{fill:#414141;}
	.st99{fill:#D5D4D4;}
	.st100{fill:#A4312E;}
	.st101{fill:#A4A3A4;}
	.st102{fill:#C5C5C5;}
	.st103{fill:#A1A1A1;}
	.st104{fill:#909090;}
	.st105{fill:#D1D1D1;}
	.st106{fill:#2B2B2B;}
	.st107{fill:#FDFDFD;}
	.st108{fill:#939393;}
	.st109{fill:#ABABAB;}
	.st110{fill:#C2C2C2;}
	.st111{fill:#989898;}
</style>
<path class="st0" d="M-39.2,363.49c0-78.66,0.01-157.32-0.04-235.98c0-1.65,0.26-2.16,2.07-2.16c305.41,0.05,610.82,0.05,916.23,0
	c1.82,0,2.07,0.51,2.07,2.16c-0.04,78.66-0.04,157.32-0.04,235.98c-0.64,0.79-1.51,0.97-2.47,1c-1.15,0.03-2.3,0.04-3.45,0.04
	c-87.94,0-175.89,0-263.83-0.01c-1.82,0-3.69,0.3-5.45-0.47c-1.31-0.82-0.89-2.15-0.91-3.31c-0.05-2.41-0.07-4.81-1.27-7.01
	c-0.51-1.13-1.36-1.88-2.51-2.36c-0.74-0.3-1.56-0.53-2-1.32c-0.34-1.14-0.28-2.29-0.06-3.44c0.11-0.24,0.26-0.44,0.46-0.61
	c1.15-0.41,1.3-1.4,1.32-2.41c0.08-4.72,0.06-9.44,0.01-14.16c-0.01-1.05-0.3-1.95-1.39-2.39c-0.2-0.19-0.35-0.42-0.44-0.69
	c-0.28-3.42-0.06-6.85-0.13-10.27c-0.1-4.99,0.29-9.98-0.41-14.95c-0.15-0.72-0.23-1.44-0.07-2.17c0.01-0.3,0.01-0.59-0.01-0.89
	c0.76-4.41,0.48-8.86,0.48-13.3c0.02-22.47,0.01-44.94,0.01-67.4c0-3.92,0-3.92,3.67-5.29c0.29-0.11,0.57-0.23,0.81-0.41
	c1.32-1.8,0.65-3.86,0.69-5.8c0.09-5.2-0.07-5.3-5.22-5.31c-4.14-0.01-8.28,0.02-12.42-0.02c-1.06-0.01-2.16,0.13-3.16-0.38
	c-1.43-0.79-0.93-2.67-2.05-3.64c-0.05-0.06-0.1-0.12-0.13-0.18c-0.83-1.49-1.63-3.11-3.63-3.08c-2.01,0.03-3.03,1.52-3.88,3.13
	c-1.42,0.91-0.86,3.13-2.54,3.88c-1.35,0.41-2.74,0.29-4.11,0.29c-88.98,0.01-177.96,0.01-266.94,0c-1.3,0-2.61,0.06-3.9-0.21
	c-1.85-0.68-1.77-2.44-2.21-3.92c-0.27-0.53-0.55-1.07-0.95-1.53c-1.92-2.24-3.71-2.26-5.69-0.04c-0.41,0.46-0.69,1-1.07,1.46
	c-0.95,1.09-0.41,2.88-1.78,3.77c-2.23,0.84-4.55,0.35-6.83,0.44c-2.3,0.09-4.6-0.03-6.9,0.06c-1.26,0.05-2.4,0.45-2.47,1.87
	c-0.14,3.05-0.5,6.11,0.24,9.13c0.87,1.26,3.13,0.71,3.48,2.66c0.18,0.65,0.11,1.27-0.18,1.86c-0.52,0.88-1.32,1.22-2.31,1.14
	c-3.51-0.3-6.26,0.79-7.79,4.19c-0.15,0.34-0.51,0.55-0.85,0.73c-3.01,1.5-6.35,1.64-9.57,2.21c-8.96,1.6-17.93,3.18-26.91,4.72
	c-0.58,0.1-1.25,0.09-1.52,0.99c1.71,0.62,3.31-0.18,4.88-0.42c5.22-0.78,10.4-1.82,15.61-2.69c0.76-0.13,1.51-0.28,2.27-0.06
	c1.3,0.57,2.18,1.65,3.14,2.62c3.7,3.75,7.54,7.36,11.12,11.23c0.52,0.56,1.1,1.07,1.24,1.88c0.23,13.33,0.15,26.65,0.05,39.97
	c-0.2,2.06-1.1,3.95-1.36,6.02c-0.16,1.26-1.45,1.91-2.47,2.58c-5.78,3.74-11.48,7.6-17.29,11.29c-1.85,1.18-3.13,2.35-2.86,4.69
	c0.09,0.77-0.16,1.52-0.7,2.13c-0.18,0.18-0.39,0.31-0.63,0.4c-1.14,0.3-0.97,1.23-0.97,2.05c-0.01,5.51,0.04,11.02-0.03,16.53
	c-0.02,1.33,0.38,2.19,1.6,2.68c0.68,0.64,0.78,1.48,0.79,2.33c0.09,6.91,0.09,13.81,0,20.72c-0.01,0.62-0.09,1.22-0.4,1.78
	c-0.42,0.83-1.16,1.15-2.03,1.26c-2.23,0.28-3.06,1.66-3.09,3.76c-0.02,1.2,0.03,2.47-1.25,3.21c-1.62,0.71-3.33,0.45-5,0.45
	c-35.6,0.02-71.21,0.01-106.81,0.01c-50.95,0-101.9,0.01-152.85-0.03C-35.9,364.5-37.78,365.04-39.2,363.49z"/>
<path class="st1" d="M605.64,363.51c91.82,0,183.63-0.01,275.45-0.01c0,34.84-0.01,69.68,0.04,104.52c0,1.53-0.24,1.91-1.86,1.91
	c-305.55-0.05-611.1-0.05-916.65,0c-1.62,0-1.86-0.38-1.86-1.91c0.05-34.84,0.04-69.68,0.04-104.52c89.96,0,179.91,0,269.87,0
	c0.82,0.41,0.94,1.18,1.03,1.97c-0.47,3.33-0.01,4.48,2.16,5.41c2.03,0.94,4.2,0.35,6.28,0.5c3.98,0.29,8.03,0.66,11.96-0.56
	c0.9-0.21,1.8-0.71,2.73-0.1c0.84,0.74,0.74,1.77,0.83,2.75c0.35,3.68,1.46,7.13,3.21,10.38c0.54,1.01,1.18,2.01,0.33,3.17
	c-2.29,1.62-5.02,1.07-7.54,1.38c-8.82,1.08-17.69,1.79-26.31,4.15c-0.15,0.04-0.31,0.05-0.45,0.11c-0.82,0.33-2.07,0.3-2.1,1.45
	c-0.04,1.27,1.25,1.39,2.16,1.68c3.3,1.04,6.71,1.63,10.12,2.14c10.54,1.57,21.13,2.58,31.76,3.32c10.01,0.7,20.02,1.37,30.04,1.85
	c6.89,0.33,13.77,0.62,20.66,0.9c10.72,0.43,21.46,0.57,32.17,0.99c7.6,0.29,15.18,0.08,22.77,0.34c29.23,0.99,58.47,0.35,87.7,0.33
	c8.81,0,17.64-0.09,26.45-0.42c10.19-0.38,20.38-0.56,30.56-0.92c10.33-0.37,20.67-0.86,30.99-1.41c9.1-0.48,18.2-1.01,27.28-1.81
	c12.05-1.07,24.14-1.91,36.01-4.53c1.28-0.28,2.51-0.7,3.77-1.05c0.67-0.18,1.44-0.44,1.47-1.25c0.03-0.85-0.77-1.06-1.42-1.29
	c-3.92-1.42-8.02-2.07-12.11-2.67c-11-1.61-22.06-2.56-33.15-3.33c-7.26-0.51-14.52-0.99-21.78-1.37c-2.98-0.16-5.96-0.36-8.95-0.42
	c-1.1-0.02-2.18-0.13-2.62-1.42c0.7-3.86,3.17-6.07,6.95-6.09c11.69-0.04,23.38-0.02,35.07-0.01c1,0,1.99,0.05,2.94,0.35
	c0.54,0.08,1.04,0.31,1.35,0.74c1.28,1.73,3.09,2.27,5.12,2.35c2.25-0.29,4.51-0.24,6.77-0.16c0.65,0.15,1.31-0.01,1.96,0.05
	c1.25,0.1,2.51-0.19,3.76-0.02c2.43-0.41,3.28-2.08,3.63-4.3c0.18-1.14,0.09-2.25,0.13-3.38c0.28-1.4,0.11-2.79-0.17-4.17
	c-0.05-0.54,0.06-1.06,0.08-1.6C604.68,366.18,604.64,364.67,605.64,363.51z"/>
<path class="st2" d="M236.25,356.07c0-7.41,0-14.82-0.01-22.22c0-0.9,0.21-1.85-0.52-2.62c-0.1-0.11-0.27-0.21-0.29-0.34
	c-0.83-4.22-1.11-8.44,0.14-12.64c0.98-0.62,2.08-0.44,3.14-0.44c19.86-0.01,39.71-0.02,59.57,0c1.29,0,2.62-0.17,3.8,0.6
	c1.01,0.84,0.96,2.01,0.96,3.17c0,7.75,0.01,15.5-0.02,23.24c0,1.28,0.23,2.31,1.18,3.31c3.42,3.59,5.97,7.73,7.67,12.41
	c2.08,5.73,2.11,5.72,8.08,5.72c10.59,0,21.18,0,31.76,0c2.97,0,3.12-0.11,3.13-3.08c0.03-13.81,0-27.62,0.02-41.42
	c0-1.11-0.3-2.33,0.69-3.26c1.56-0.88,3.28-0.69,4.95-0.69c31.45-0.01,62.9-0.01,94.36-0.01c46.41,0,92.82-0.01,139.23,0.02
	c1.65,0,3.39-0.38,4.93,0.62c0.82,1.73,0.24,3.57,0.4,5.36c0.08,0.9-0.15,1.82,0.16,2.71l0.1,0.18c0.87,0.69,0.96,1.67,0.98,2.68
	c0.05,4.78,0.05,9.57,0,14.35c-0.01,1-0.07,1.99-0.95,2.69l-0.11,0.18c-0.47,1.23,0.14,2.56-0.37,3.78
	c-0.39,0.41-0.87,0.59-1.43,0.58c-3.13,0.34-6.27,0.14-9.4,0.22c-4.06,0.12-5.56,1.71-5.72,5.81c-0.06,1.7,0.52,3.56-0.89,5.04
	c-1.31,0.87-2.81,0.65-4.25,0.65c-14.49,0.02-28.98,0.01-43.47,0.01c-0.92,0-1.84-0.01-2.76,0.05c-1.12,0.07-2.18,0.3-2.6,1.51
	c-0.42,1.19,0.13,2.07,1.06,2.78c0.31,0.23,0.61,0.47,0.82,0.8c0.33,1.25,1.4,1.52,2.44,1.79c1.28,0.33,2.59,0.24,3.89,0.24
	c13.55,0.01,27.1-0.01,40.65,0.02c1.43,0,2.94-0.27,4.2,0.74c0.53,0.64,0.58,1.33,0.25,2.07c-0.73,1-1.83,1.03-2.9,1.03
	c-18.03,0.04-36.07,0.05-54.1-0.01c-2.86-0.01-3.43-0.58-3.78-3.47c-0.71-5.83-2.63-11.13-6.37-15.77
	c-4.36-5.41-9.99-8.66-16.73-9.66c-12.19-1.81-21.57,2.97-28.21,13.15c-2.38,3.64-3.42,7.85-3.78,12.19
	c-0.23,2.86-0.83,3.46-3.66,3.56c-0.92,0.03-1.84,0.02-2.76,0.02c-48.57,0-97.15,0-145.72,0c-0.46,0-0.92,0-1.38,0
	c-4.74-0.03-5.15-0.4-5.59-5.19c-1.04-11.32-11.08-21.89-22.45-23.8c-9.42-1.59-17.38,1.35-24.33,7.56
	c-1.64,1.47-2.5,3.69-4.51,4.83c-2.48,0.64-4.94-0.2-7.41-0.09c-0.81-0.22-1.62,0.14-2.42,0.02c-0.81-0.09-1.62,0.01-2.43-0.06
	c-1.52,0.13-3.03,0.24-4.56,0.05C237.98,356.89,236.86,357.19,236.25,356.07z"/>
<path class="st3" d="M583.12,199.44c6.06,0.02,12.12,0.03,18.18,0.06c3.16,0.02,3.92,0.78,3.93,3.96c0.01,3.14-0.03,6.29-0.05,9.43
	c-2.38,0.56-4.87,0.49-7.25,0.57c-9.33,0.29-18.67,0.14-28.01,0.11c-0.46,0-0.92-0.05-1.34-0.27c-0.63-0.37-0.56-1-0.61-1.59
	c-0.25-1.13-1.14-1.34-2.09-1.42c-0.92-0.08-1.84-0.05-2.76-0.05c-56.21,0-112.41,0-168.62,0c-1.07,0-2.15-0.03-3.21,0.09
	c-0.86,0.11-1.04,0.69-0.99,1.44c0.04,0.23,0.05,0.46,0.06,0.69c-0.09,0.62-0.5,0.89-1.06,1.03c-1,0.13-1.99,0.08-2.99,0.08
	c-37.09,0-74.18,0-111.27,0.01c-2.67,0-5.29-0.49-7.94-0.7c-0.02-3.36-0.07-6.72-0.04-10.08c0.02-2.53,0.78-3.29,3.3-3.31
	c4.73-0.05,9.47-0.05,14.2-0.07c0.44-0.3,0.8-0.78,1.38-0.77c3.24,0.04,6.56-0.91,9.67,0.79c1.07,0.01,2.15,0.04,3.22,0.04
	c89.83,0,179.65,0,269.48,0c1.07,0,2.15-0.03,3.22-0.05c0.58-0.53,1.23-0.84,2.04-0.87c2.5-0.08,5-0.08,7.5,0
	C581.89,198.6,582.54,198.92,583.12,199.44z"/>
<path class="st4" d="M236.12,309.2c-0.79-4.03,1.02-6.37,4.5-8.36c5.32-3.03,10.23-6.76,15.48-9.92c2.28-1.37,3.45-3.05,3.57-5.61
	c0.03-0.76,0.07-1.54,0.55-2.2c1.36,0.93,1.03,2.49,1.28,3.77c0.73,3.69,2.89,5.67,6.57,5.7c1,0.01,1.99,0.05,2.99-0.01
	c1.98-0.11,3.72,0.19,5.22,1.76c1.18,1.23,2.94,1,3.86-0.16c0.83-1.05,0.59-2.61-0.55-3.46c-1.09-0.82-2.19-0.66-3.16,0.17
	c-3.3,2.82-7.11,1.9-10.71,1.23c-2.54-0.48-3.83-2.66-4.13-5.24c-0.16-1.37-0.11-2.75-0.05-4.13c0.07-1.46,0.49-2.59,2.32-2.36
	c1.1,0.14,1.29-0.62,1.3-1.45c0.05-3.83-0.02-7.66,0.03-11.49c0.03-1.92-1.83-1.26-2.53-2.13c-0.35-1.79-0.21-3.48,0.96-4.97
	c1.45-0.78,1.53-2.13,1.56-3.56c0.08-4.36-0.26-8.73,0.29-13.08c1.75-5.69,1.6-11.7,2.89-17.47c0.2-0.89,0.46-1.75,0.66-2.63
	c-0.2-1.19,0.36-2.25,0.55-3.38c-0.07-0.95,0.43-1.69,0.91-2.44c1.95-0.87,3.73-0.87,5.43,0.7c1.83,1.7,3.31,1.44,4.62-0.68
	c0.48-0.78,0.9-1.59,1.81-1.98c1.44-0.36,2.9-0.25,4.35-0.26c33.49-0.01,66.98-0.01,100.47-0.01c1.61,0,3.22-0.04,4.78,0.48
	c0.28,0.11,0.51,0.28,0.7,0.5c0.71,1.85,0.23,3.86,0.74,5.74c0.25,2.89-0.05,3.27-2.87,3.28c-7.97,0.03-15.93,0.01-23.9,0.01
	c-1.7,0-3.37,0.12-4.82,1.14c-0.69,0.86-0.58,1.88-0.58,2.87c-0.01,17.99-0.02,35.98,0,53.97c0,1.37-0.13,2.82,1.37,3.64
	c0.36,0.24,0.6,0.62,0.95,0.86c1.18,0.75,2.5,0.6,3.79,0.61c9.02,0.01,18.04-0.01,27.06,0.01c3.06,0.01,3.28,0.22,3.32,3.24
	c0.02,1.61,0.43,3.18,0.47,4.79c0.17,0.82,0,1.54-0.61,2.14c-0.68,0.45-1.46,0.41-2.22,0.41c-12.53,0.01-25.06,0.01-37.59,0
	c-0.61,0-1.22,0.01-1.81-0.2c-0.94-0.42-1.02-1.26-1.05-2.12c-0.03-0.84-0.02-1.69-0.02-2.53c0-22.7,0-45.39,0-68.09
	c0-0.77,0.01-1.53-0.01-2.3c-0.07-3.12-0.21-3.26-3.24-3.26c-15.11,0-30.22,0-45.33,0c-3.15,0-3.24,0.09-3.24,3.22
	c0,29.6,0,59.2-0.01,88.8c0,1.21,0.21,2.48-0.72,3.51c-0.95,0.83-2.12,0.81-3.27,0.81c-19.87,0.03-39.75,0.04-59.62-0.01
	c-3.48-0.01-3.88-0.44-3.84-3.85C235.58,311.86,235.2,310.43,236.12,309.2z"/>
<path class="st5" d="M302.11,315.95c0-31.14,0.01-62.28-0.05-93.43c0-2.08,0.56-2.77,2.71-2.76c16.03,0.08,32.07,0.08,48.1,0
	c2.12-0.01,2.74,0.63,2.74,2.74c-0.06,24.32-0.04,48.63-0.03,72.95c0,1.05-0.27,2.16,0.42,3.13c0.21,0.2,0.41,0.4,0.6,0.62
	c0.78,1.08,1.94,0.72,2.96,0.73c12.68,0.04,25.36-0.03,38.04,0.05c16.72-0.07,33.44-0.03,50.15-0.03
	c37.88,0.01,75.76-0.04,113.65,0.02c11.7-0.06,23.4-0.01,35.1-0.03c1.02,0,2,0.03,2.7,0.93c0.83,1.68,0.35,3.47,0.39,5.2
	c0.08,3.3,0.01,6.59,0.01,9.89c-0.14,0.05-0.27,0.11-0.41,0.16c-0.26-0.15-0.46-0.35-0.61-0.61c-0.81-3.01-0.3-6.09-0.38-9.13
	c-0.11-3.84-0.21-4.01-4.05-4.03c-11.11-0.08-22.22,0.17-33.33-0.13c-38.22,0.07-76.43,0.02-114.64,0.03
	c-16.19,0-32.38,0.04-48.57-0.02c-12.1,0.3-24.21,0.06-36.31,0.13c-4.72,0.03-4.71,0.01-4.72,4.74c0,2.07,0.03,4.14-0.02,6.2
	c-0.02,0.99,0,2.01-0.81,2.79c-0.43,0.28-0.85,0.26-1.27-0.02c-1.23-1.27-0.85-2.89-0.85-4.38c-0.03-18.65-0.02-37.3-0.02-55.95
	c0-9.75,0.01-19.49-0.01-29.24c-0.01-3.49-0.32-3.8-3.85-3.8c-13.59-0.01-27.17-0.01-40.76,0c-3.74,0-3.98,0.26-3.98,4.12
	c-0.01,28.01,0,56.03-0.02,84.04c0,1.59,0.26,3.23-0.4,4.77c-0.39,0.74-1,1.02-1.82,0.85C302.47,316.38,302.25,316.21,302.11,315.95
	z"/>
<path class="st6" d="M281.87,216.6c-0.19,1.86-0.82,3.41-2.83,3.94c-1.88,0.49-3.14-0.36-4.24-1.85c-1.04-1.41-2.66-0.57-4.03-0.71
	c-0.75,0.94-1.85,0.81-2.87,1.02c-1.64,0.32-3.54,0.38-4.06,2.55c-0.38,1.09-0.35,2.21-0.22,3.34c-0.12,1.44-0.48,2.86,1.81,3.08
	c1.43,0.13,1.69,1.55,1.72,2.84c0.08,3.57-0.36,7.11-0.66,10.66c-0.06,0.76-0.14,1.51,0.02,2.26c-0.53,4.87-0.24,9.76-0.24,14.64
	c0,1.85-0.43,2.82-2.46,2.26c-1.47,1.4-0.94,3.14-0.82,4.8c2.92-1.47,3.24-1.28,3.25,1.92c0.01,3.83,0,7.66,0,11.49
	c0,3.52-0.23,3.67-3.6,2.14c-0.34,2.22-0.38,4.41-0.01,6.55c0.43,2.42,2.52,4.01,5.15,4.12c1.76,0.07,3.52-0.01,5.28,0.03
	c0.92,0.02,1.52-0.35,2.13-1.06c1.77-2.04,3.95-2.17,5.57-0.46c1.4,1.48,1.35,3.81-0.11,5.16c-1.57,1.45-3.97,1.3-5.44-0.57
	c-0.72-0.92-1.48-1.2-2.53-1.17c-1.3,0.04-2.6,0.01-3.91,0.01c-5.09-0.03-7.96-2.65-8.44-7.71c-0.09-0.91-0.07-1.84-0.11-2.76
	c0-13.65-0.01-27.29-0.01-40.93c-0.3-0.82-0.78-1.57-0.91-2.45c-0.19-4.65-0.07-9.3-0.18-13.95c-0.19-1.58,0.3-2.92,1.47-4
	c1.49-3.75,4.28-5.42,8.27-5.2c0.76,0.04,1.54,0.06,2.22-0.4c1.42-0.43,2.79-0.91,3.8-2.11c0.44-0.53,1.11-0.72,1.82-0.71
	c1.04-0.32,2.08-0.22,3.12,0.02C281.61,213.74,282.57,214.64,281.87,216.6z"/>
<path class="st7" d="M597.8,350.26c0.47-0.04,0.94-0.09,1.41-0.13c0.15-0.3,0.3-0.3,0.45,0c2,0.17,3.83,0.62,4.69,2.74
	c0.45,1.38,0.2,2.72-0.25,4.05c-2.06,6.02-3.82,12.14-5.87,18.17c-0.28,0.81-0.54,1.6-1.23,2.16c-1.82,0.86-3.75,0.65-5.65,0.53
	c-2.04-0.13-2.81-1.21-2.4-3.27c0.44-2.18,1.29-4.24,1.94-6.36c1.61-5.18,3.23-10.36,4.95-15.52
	C596.18,351.56,596.65,350.64,597.8,350.26z"/>
<path class="st1" d="M236.12,309.2c0.04,1.53,0.21,3.07,0.09,4.58c-0.14,1.79,0.45,2.34,2.29,2.32c8.57-0.1,17.15-0.03,25.72-0.05
	c12.63-0.02,25.26-0.07,37.89-0.1c0,0-0.02,0.19-0.02,0.19c0.81,0.74,0.95,1.56,0.32,2.48c-0.11,0.08-0.22,0.15-0.33,0.23
	c-20.94-0.01-41.88-0.03-62.82-0.05c-1.14,0-2.31,0.19-3.37-0.44c-0.6-0.29-0.93-0.79-0.96-1.42c-0.1-2.17-0.13-4.35,0.02-6.52
	c0.04-0.55,0.38-0.97,0.86-1.25C235.91,309.18,236.01,309.19,236.12,309.2z"/>
<path class="st8" d="M260.59,221.76c-0.25,1.16,0.02,2.44-0.79,3.48c-0.47,1.09-1.55,1.25-2.48,1.39c-3.08,0.46-6.12,1.22-9.24,1.43
	c-0.81,0.15-1.55-0.03-2.27-0.4c-7.46,1.28-14.92,2.54-22.36,3.87c-1.21,0.22-2.03,0.31-2.33-1.22c-0.32-1.6,0.62-1.76,1.76-1.96
	C235.44,226.17,248.01,223.96,260.59,221.76z"/>
<path class="st2" d="M356,298.98c0-0.13,0-0.26,0-0.39c13.81-0.03,27.62-0.05,41.42-0.08c0.67-0.74,1.55-0.93,2.5-0.95
	c1.15-0.02,2.3-0.03,3.45-0.03c50.97,0,101.93,0,152.9,0c1.54,0,3.07,0.01,4.6,0.13c11.93-0.26,23.85-0.09,35.78-0.09
	c0.68,0,1.38,0,2,0.38c0.27,0.16,0.48,0.38,0.62,0.66c-0.03,0.13-0.05,0.26-0.08,0.38c-0.68,0.91-1.66,0.96-2.68,0.96
	c-11.69-0.02-23.38,0.03-35.08-0.03c-54.65,0.04-109.29,0.05-163.94,0c-12.86,0.06-25.72,0.01-38.58,0.03
	C357.82,299.95,356.74,299.98,356,298.98z"/>
<path class="st6" d="M236.25,356.07c0.91,0.04,1.82,0.08,2.74,0.12c0.37,0.52,0.59,1.11,0.43,1.72c-0.87,3.45-1.34,7.02-2.84,10.31
	c-0.18,0.2-0.4,0.35-0.65,0.45c-3.13,0.7-4.12,0.16-5.16-2.82c-0.03-0.79-0.07-1.57-0.1-2.36c0.02-0.53,0.04-1.06,0.05-1.59
	C230.75,356.93,231.35,356.3,236.25,356.07z"/>
<path class="st9" d="M561.39,299.07c12.6-0.03,25.2-0.05,37.79-0.08c0,0.63,0.01,1.25,0.01,1.88c-12.6-0.02-25.2-0.05-37.81-0.07
	C560.88,300.22,560.9,299.65,561.39,299.07z"/>
<path class="st10" d="M596.8,376.74c2.51-7.96,5.02-15.91,7.54-23.87c1.36,2.09,1.25,4.45,1.27,6.78c0.01,1.29,0.02,2.57,0.03,3.86
	c-0.19,1.38,0.3,2.82-0.39,4.16c-1.49-0.93-0.91-2.44-1.03-3.73c-0.12-1.27,0.19-2.52,0.38-3.76c-0.78,4.12-2.18,8.07-3.49,12.04
	c-0.96,2.92-0.96,2.92,1.54,4.13c0.8,2.24-0.3,3.92-1.63,5.54c-1.38,0.01-2.75,0.01-4.13,0.02c-0.56-0.8-0.26-1.59-0.04-2.41
	c0.19-0.7,0.76-1.4,0.13-2.16C596.88,377.14,596.82,376.95,596.8,376.74z"/>
<path class="st2" d="M279.63,213.75c-0.98-0.42-1.96-0.42-2.95,0c-1.81-0.14-3.47,1.28-5.34,0.52c-0.28-0.97-1.08-0.89-1.84-0.93
	c-0.81-0.04-1.68,0.22-2.38-0.45c40.98,0,81.97,0,122.95,0c0.87,0.14,0.4,0.54,0.18,0.9c-0.93,0.74-2.05,0.57-3.1,0.57
	c-34.35,0.03-68.69,0.01-103.04,0.05C282.54,214.43,281.17,213.63,279.63,213.75z"/>
<path class="st11" d="M568.29,212.89c12.3,0,24.59,0.01,36.89,0.01c-1.1,0.82-2.38,0.44-3.57,0.42c-1.51-0.02-2.11,0.59-1.98,2.05
	c0.05,0.53,0.01,1.07,0.01,1.61c0,26.24,0,52.47-0.01,78.71c0,0.98,0.22,2.01-0.37,2.92c0,0-0.1-0.08-0.1-0.08
	c-0.97-0.77-0.95-1.87-0.97-2.94c-0.05-3.3-0.02-6.6-0.02-9.9c0-21.41,0-42.83,0-64.24c0-1.54-0.01-3.07,0.12-4.6
	c0.03-2.16-1.41-2.44-3.1-2.44c-7.83-0.02-15.66,0.02-23.49-0.03c-1.2-0.01-2.48,0.25-3.56-0.58
	C567.92,213.44,567.53,213.07,568.29,212.89z"/>
<path class="st12" d="M599.71,346.39c-0.01-6.57-0.02-13.14-0.03-19.71c1.85-0.37,2.41,0.45,2.38,2.24
	c-0.08,5.04-0.08,10.09,0,15.13C602.09,345.8,601.59,346.71,599.71,346.39z"/>
<path class="st13" d="M583.12,199.44c-3.86,0-7.72,0-11.57,0c0.37-1.3-0.83-3.4,1.81-3.56c2.76-1.7,5.54-1.44,8.31-0.03
	C583.86,196.36,582.76,198.2,583.12,199.44z"/>
<path class="st9" d="M235.8,309.17c0.03,3.06,0.05,6.13,0.08,9.19c-0.05,4.29-0.11,8.58-0.16,12.86c-1.3,0.18-1.77-0.39-1.76-1.68
	c0.04-6.35,0.01-12.7,0.02-19.04C233.98,309.26,234.18,308.24,235.8,309.17z"/>
<path class="st13" d="M295.62,199.46c-3.68,0-7.36-0.01-11.05-0.01c0.36-1.23-0.74-3.04,1.41-3.57c0.12-0.03,0.23-0.06,0.35-0.09
	c2.54-0.23,5.07-0.24,7.61,0.01c0.12,0.03,0.23,0.06,0.35,0.09C296.03,196.59,294.7,198.44,295.62,199.46z"/>
<path class="st14" d="M245.81,227.66c0.68-0.15,1.37-0.31,2.05-0.46c3.45,1.55,5.48,4.72,8.15,7.15c1.67,1.52,3.41,3.03,4.2,5.28
	c0.15,0.84,0.25,1.69,0.01,2.53C255.41,237.33,250.61,232.5,245.81,227.66z"/>
<path class="st9" d="M581.66,195.86c-2.77,0.29-5.54,0.25-8.31,0.03c0.35-2.29,1.72-3.58,3.99-3.68
	C579.81,192.11,581.07,193.64,581.66,195.86z"/>
<path class="st9" d="M285.98,195.87c0.53-2.28,1.85-3.72,4.28-3.66c2.31,0.06,3.58,1.46,4.03,3.66c0,0-0.01,0.01-0.01,0.01
	C291.52,196.2,288.75,196.26,285.98,195.87L285.98,195.87z"/>
<path class="st2" d="M271.34,214.28c1.64-1.59,3.5-0.95,5.34-0.52c-0.67,0.21-1.27,0.58-1.54,1.21c-0.89,2.05-2.39,1.88-4.06,1.2
	C271.16,215.53,271.25,214.91,271.34,214.28z"/>
<path class="st15" d="M235.97,346.6c-0.36,0.91,0.45,2.32-0.92,2.38c-1.56,0.06-1.02-1.42-1.03-2.29c-0.01-0.82-0.48-2.18,0.86-2.23
	C236.61,344.38,235.39,346.02,235.97,346.6z"/>
<path class="st16" d="M235.91,351.96c-0.34,0.76,0.53,2.18-0.89,2.22c-1.61,0.05-0.96-1.45-0.99-2.29
	c-0.03-0.79-0.51-2.16,0.95-2.11C236.46,349.83,235.56,351.22,235.91,351.96z"/>
<path class="st17" d="M233.92,340.99c0.27-0.91-0.43-2.24,0.93-2.35c1.52-0.11,0.99,1.3,0.95,2.04c-0.04,0.83,0.73,2.3-0.86,2.34
	C233.55,343.07,234.24,341.64,233.92,340.99z"/>
<path class="st18" d="M235.91,335.5c-0.3,0.77,0.51,2.16-0.97,2.17c-1.44,0.01-0.94-1.34-0.93-2.14c0-0.87-0.5-2.36,1.06-2.27
	C236.42,333.34,235.61,334.74,235.91,335.5z"/>
<path class="st2" d="M599.14,316.12c0.15-0.05,0.3-0.1,0.45-0.16c0,3.51,0,7.03-0.01,10.54c-0.84-2.53-0.15-5.15-0.43-7.72
	C598.37,317.9,598.21,317.01,599.14,316.12z"/>
<path class="st19" d="M599.65,350.13l-0.22,0.01c0,0-0.22-0.01-0.22-0.01c0.14-1.18-0.36-2.44,0.4-3.55
	C599.62,347.76,599.64,348.94,599.65,350.13z"/>
<path class="st0" d="M537.02,383.78c0.59,0.46,1.3,0.41,1.99,0.42c9.65,0.06,19.28,0.79,28.9,1.5c13.8,1.02,27.63,1.99,41.27,4.54
	c2.57,0.48,5.11,1.09,7.53,2.08c0.88,0.36,2.14,0.6,2.15,1.8c0.02,1.29-1.24,1.68-2.21,2.06c-2.21,0.88-4.54,1.37-6.87,1.83
	c-10.16,2-20.44,2.9-30.74,3.75c-12.28,1.02-24.57,1.84-36.88,2.34c-6.73,0.28-13.46,0.61-20.19,0.9
	c-10.34,0.45-20.68,0.55-31.01,0.98c-7.83,0.33-15.64,0.11-23.46,0.36c-29.69,0.96-59.38,0.37-89.07,0.3
	c-8.42-0.02-16.87-0.03-25.29-0.39c-10.41-0.44-20.83-0.58-31.25-0.91c-10.33-0.33-20.66-0.82-30.98-1.39
	c-9.01-0.49-18.03-1.03-27.02-1.83c-12.8-1.13-25.65-1.97-38.19-5.03c-1.18-0.29-2.33-0.77-3.45-1.25c-0.77-0.33-1.6-0.79-1.53-1.8
	c0.07-0.97,0.9-1.41,1.69-1.7c3.39-1.27,6.91-2.02,10.47-2.58c8.09-1.27,16.2-2.34,24.39-2.83c0.68-0.04,1.35-0.27,2.03-0.41
	c1.34-0.35,1.93,0.76,2.62,1.48c4.54,4.72,10.01,7.43,16.58,7.81c5.2,0.3,9.95-1.09,14.35-3.85c1.34-0.84,2.51-2.05,4.2-2.25
	c2.44,0.08,4.78,0.87,7.25,0.94c7.08,0.21,12.94-2.43,18.04-7.12c0.78-0.71,1.44-1.64,2.7-1.51c5.03,0.05,10.07,0.51,15.08-0.32
	c0.99-0.12,1.96-0.38,2.97-0.35c8.9,0.3,17.78-0.55,26.68-0.51c23.09,0.11,46.18-0.89,69.27-0.36c8.35,0.19,16.71,0.29,25.06,0.51
	c0.39,0.01,0.77,0.02,1.13-0.1c1.65-0.31,3.24,0.07,4.83,0.41c1.59,0.6,2.14,2.13,2.93,3.41c3.37,5.41,8.18,8.91,14.31,10.4
	c6.84,1.66,13.39,0.77,19.29-3.33c1.46-1.01,2.89-2.02,4.79-1.94c3.94,0.56,7.86,1.24,11.85,0.36c4.12-0.91,7.83-2.59,11.05-5.33
	C535.04,384.21,535.74,383.23,537.02,383.78z"/>
<path class="st20" d="M324.69,382.41c-5.84,6.59-13.06,9.87-21.95,9.17c-1.98-0.16-3.93-0.48-5.76-1.32
	c-0.48-1.16,0.33-1.85,0.94-2.61c4.45-5.54,6.5-11.81,5.77-18.92c-1.8-10.21-7.51-17.05-17.49-20.11
	c-9.44-2.89-20.58,1.12-26.15,9.29c-0.6,0.88-1.14,1.82-1.75,2.69c-0.46,0.66-0.94,1.48-2.02,1.04c-0.92-1.54-1.45-3.14-0.85-4.94
	c4.43-6.54,10.33-10.92,18.12-12.76c16.53-3.9,33.38,8.46,34.59,25.45c0.24,3.38,0.24,3.38,3.61,3.38
	c50.11,0,100.23-0.01,150.34,0.05c2.24,0,3.1-0.36,3.11-2.89c0.09-12.21,10.97-24.26,23.38-26.19c15.54-2.42,29.31,6.76,32.98,22.06
	c0.43,1.77,0.84,3.6,0.67,5.45c-0.11,1.22,0.34,1.57,1.55,1.56c4.22-0.06,8.44-0.02,12.66-0.02c15.04,0,30.08,0,45.13,0.01
	c0.25,0.1,0.45,0.27,0.58,0.51c0.06,1.77,1.12,3.57-0.14,5.31c-12.72,0.03-25.44,0.14-38.16,0.03c-2.34-0.02-3.9,0.47-4.95,2.59
	c-0.47,0.94-1.26,1.72-1.9,2.57c-5.75,5.64-12.55,8.46-20.68,7.82c-1.76-0.14-3.46-0.52-5.15-1c-2.07-0.84-0.83-1.93-0.09-2.77
	c1.93-2.22,3.47-4.63,4.6-7.36c1.57-3.81,1.42-7.79,1.6-11.76c-0.98-4.87-2.74-9.37-6.2-13.08c-4-4.29-8.82-6.99-14.67-7.77
	c-7.54-1-14.11,1.29-19.63,6.29c-3.44,3.12-5.81,7.1-6.87,11.7c-0.24,1.03-0.79,2-0.65,3.11c0.12,3.73,0.1,7.47,1.36,11.06
	c0.23,0.66,0.2,1.36-0.4,1.9c-1.54-0.1-3.14,0.44-4.59-0.47c-3.97-2.13-8.29-1.76-12.56-1.76c-33.7,0.01-67.39,0.05-101.09-0.05
	c-4.37-0.01-8.54,0.23-12.37,2.54c-4.83,0.38-9.67,0.05-14.5,0.18C324.97,382.4,324.83,382.4,324.69,382.41z"/>
<path class="st21" d="M304.43,368.55c1.21,6.56-0.66,12.4-4.28,17.79c-0.93,1.39-2.1,2.62-3.17,3.92c-4.46,3.52-9.29,6.09-15.12,6.5
	c-8.73,0.61-15.83-2.51-21.53-9.03c-0.35-0.4-0.7-0.8-1.05-1.2c-3.07-4.77-4.84-9.92-4.64-15.66c-0.29-1.78,0.82-2.5,2.25-3
	c1.95-0.54,3.93-0.3,5.9-0.23c1.35,0.04,2.05,0.85,2.35,2.09c0.06,3.62,0.47,7.13,2.66,10.22c3.67,5.17,8.82,7.08,14.8,5.97
	c5.81-1.07,9.54-4.89,11.15-10.62c0.39-1.39,0.59-2.83,0.44-4.3c0.8-3.25,0.96-3.48,4.31-3.41
	C300.5,367.62,302.69,366.87,304.43,368.55z"/>
<path class="st6" d="M581.72,373.16c-0.08-0.12-0.12-0.25-0.12-0.39c0-0.64,0.01-1.28,0.01-1.92c-0.89-0.78-0.87-1.81-0.79-2.86
	c0.06-2.14-0.83-4.4,0.8-6.35c0.02-1.91,0.02-3.83,0.06-5.74c0.08-3.52,2.03-5.61,5.55-5.7c3.52-0.09,7.04,0.02,10.56,0.04
	c-2.66,8.21-5.31,16.42-8,24.63c-0.48,1.48,0.09,1.98,1.5,1.95c1.83-0.05,3.67-0.06,5.5-0.09c0,0,0.1,0.11,0.1,0.11
	c0.66,2.13-0.02,3.78-1.79,5.04c-2.48,0-4.97,0-7.45,0c-0.62-0.64-0.56-1.43-0.33-2.16c0.38-1.22,0.1-1.87-1.27-2.04
	C583.42,377.37,582.02,375.77,581.72,373.16z"/>
<path class="st7" d="M602.42,376.39c-0.44,0.11-0.88,0.25-1.33,0.33c-2.13,0.35-2.49-0.06-1.82-2.13
	c1.81-5.64,3.64-11.27,5.99-16.83c0,3.31,0,6.61,0,9.92c-0.03,0.44-0.05,0.88-0.08,1.31c-0.56,2.33-0.72,4.76-1.83,6.95
	C603.1,376.22,602.8,376.38,602.42,376.39z"/>
<path class="st22" d="M256.59,368.54c-0.65,0.77-1.3,1.55-1.95,2.32c-0.76,0-1.17,0.67-1.78,0.95c-2.65,0.43-5.32,0.11-7.97,0.18
	c-1.72-1.3-0.82-2.64-0.04-3.97c0.17-0.21,0.39-0.37,0.63-0.48c0.85-0.35,1.75-0.48,2.67-0.42c2.25,0.14,4.33-0.1,6.11-1.74
	c0.67-0.62,1.63-1.22,2.65-0.36C257.72,366.28,257.61,367.45,256.59,368.54z"/>
<path class="st23" d="M581.72,373.16c1.08,2.38,2.83,3.78,5.53,3.66c1.37-0.06,1.82,0.45,1.38,1.77c-0.36,1.09-0.65,2.2-0.98,3.3
	c-2.7,0.3-4.61-0.73-5.62-3.31C581.38,376.81,581.72,374.98,581.72,373.16z"/>
<path class="st24" d="M244.57,371.77c2.76,0.02,5.52,0.03,8.29,0.05c-0.42,0.14-0.85,0.39-1.27,0.39c-5.77,0.03-11.55,0.02-17.33,0
	c-0.43,0-0.85-0.25-1.28-0.39c1.09-1.09,1.65-2.59,2.76-3.66c0.18-0.03,0.35-0.05,0.53-0.08c1.26-1.31,2.75-1.04,4.25-0.62
	c0.24,0.12,0.44,0.3,0.6,0.5c0.59,1.05,0.45,2.03-0.34,3.07c0.59-0.08,1.13-0.03,1.67-0.04
	C243.32,370.82,243.99,371.16,244.57,371.77z"/>
<path class="st25" d="M235.74,368.15c-0.14,1.81,0.11,3.91-2.76,3.66c-3.07-1.12-2.07-3.76-2.21-5.96
	C231.93,367.69,233.66,368.31,235.74,368.15z"/>
<path class="st26" d="M602.42,376.39c0.15-0.16,0.29-0.32,0.44-0.48c0.84-0.7,0.65-2.45,2.34-2.3c0.01,1.13,0.06,2.27,0.01,3.4
	c-0.11,2.62-1.39,4.09-4.19,4.87C601,379.93,602.09,378.25,602.42,376.39z"/>
<path class="st27" d="M595.1,381.89c0.6-1.68,1.2-3.36,1.79-5.04c1.14-0.02,1.54,0.55,1.2,1.6c-0.37,1.16-0.8,2.3-1.21,3.45
	C596.3,381.9,595.7,381.9,595.1,381.89z"/>
<path class="st28" d="M605.2,373.61c-0.78,0.76-1.25,1.84-2.34,2.3c0.49-2.4,1.22-4.73,2.31-6.93
	C605.18,370.52,605.19,372.07,605.2,373.61z"/>
<path class="st1" d="M599.14,316.12c0.01,0.89,0.01,1.78,0.02,2.67c-19.72,0.01-39.45,0.02-59.17,0.02c-60.24,0-120.49,0-180.73,0
	c-1.23,0-2.46,0.03-3.68,0.05c-0.07-0.12-0.15-0.24-0.22-0.35c-0.17-1.2,0.04-2.26,1.05-3.06c1.16-0.56,2.41-0.4,3.62-0.4
	c78.36-0.02,156.72-0.02,235.08,0c1.42,0,2.96-0.29,4.12,0.94L599.14,316.12z"/>
<path class="st9" d="M365.65,368.18c-2.09-0.59-3.14-1.95-2.69-4.12c0.42-2.03,1.99-2.49,3.85-2.49
	c29.75,0.01,59.51,0.02,89.26-0.01c2.1,0,3.58,0.67,4.13,2.82c0.89,2.3-0.05,4.1-2.45,4.57c-1.05,0.21-2.14,0.16-3.22,0.16
	c-28.24,0.01-56.48,0.01-84.73,0C368.36,369.12,366.87,369.24,365.65,368.18z"/>
<path class="st9" d="M581.63,361.65c0,2.13,0,4.26,0,6.39c-1.06,1.42-2.62,1.06-4.03,1.07c-12.55,0.04-25.11,0.02-37.66,0.02
	c-2.37,0-4.75,0.02-7.12-0.02c-1.02-0.02-1.99-0.13-2.75-0.91c-2.09-0.56-3.14-1.87-2.75-4.07c0.35-1.94,1.77-2.54,3.55-2.54
	C547.8,361.61,564.71,361.63,581.63,361.65z"/>
<path class="st0" d="M365.65,368.18c13.26-0.02,26.53-0.05,39.79-0.06c16.79-0.01,33.58,0,50.38-0.01c3.16,0,3.93-0.69,4.38-3.72
	c1.95,0.39,2.73,1.78,2.52,3.53c-0.23,1.93-1.66,2.83-3.57,2.92c-0.38,0.02-0.77,0.01-1.15,0.01c-29.15,0-58.3,0-87.45-0.01
	C368.46,370.85,366.26,370.95,365.65,368.18z"/>
<path class="st1" d="M355.57,318.86c-0.01,15.11-0.01,30.21-0.02,45.32c0,3.01-0.01,3.01-3.08,3.01c-11.89,0-23.78-0.06-35.66,0.05
	c-2.31,0.02-3.5-0.84-4.37-2.84c-1.46-3.36-2.38-6.98-4.53-10.03c-1.28-1.81-2.44-3.76-4-5.3c-1.47-1.45-1.85-2.98-1.84-4.92
	c0.06-8.43,0.02-16.87,0.01-25.31c0,0,0.06-0.06,0.06-0.06c0.63-0.59,1.29-1.05,2.14-0.35c0.17,0.22,0.29,0.47,0.36,0.74
	c0.45,1.11,0.32,2.27,0.33,3.41c0.02,6.91,0.03,13.81-0.01,20.72c-0.01,1.86,0.52,3.34,1.78,4.78c3.22,3.66,5.58,7.87,7.27,12.45
	c1.3,3.51,1.63,3.76,5.32,3.77c10.21,0.01,20.42,0.01,30.62,0c3.41,0,3.64-0.23,3.64-3.69c0.02-12.59-0.01-25.17,0.03-37.76
	c0-1.34-0.32-2.79,0.72-3.97c0.38-0.29,0.77-0.38,1.19-0.09C355.53,318.81,355.57,318.86,355.57,318.86z"/>
<path class="st0" d="M530.08,368.2c15.96-0.02,31.92-0.05,47.88-0.08c1.23,0,2.45-0.05,3.68-0.08c-0.01,0.94-0.01,1.88-0.02,2.81
	c-15.64,0-31.28,0.02-46.92-0.02C532.74,370.83,530.52,370.98,530.08,368.2z"/>
<path class="st6" d="M256.44,364.83c-2.87,3.79-6.96,3.45-11.01,3.23c-0.77-0.64-0.67-1.48-0.5-2.32c0.49-2.47,1.19-4.89,1.7-7.35
	c0.2-0.95,0.73-1.66,1.54-2.18c2.45-0.17,4.88-0.16,7.27,0.5c0.91,1.52,1.21,3.17,1.14,4.91
	C257.6,362.74,257.67,363.81,256.44,364.83z"/>
<path class="st29" d="M592.36,332.38c0.01,3.43-2.55,6.14-5.84,6.17c-3.26,0.03-6.21-2.9-6.2-6.17c0.01-3.29,2.71-6.08,5.94-6.14
	C589.68,326.18,592.35,328.87,592.36,332.38z"/>
<path class="st29" d="M255.6,332.36c0.01,3.4-2.75,6.21-6.08,6.17c-3.33-0.04-5.92-2.65-5.96-6.01c-0.05-3.51,2.5-6.21,5.92-6.28
	C252.77,326.18,255.59,329,255.6,332.36z"/>
<path class="st7" d="M240.85,368.03c-1.53,0.01-3.06,0.03-4.58,0.04c0.32-4.1,1.67-7.96,2.72-11.89c1.53,0,3.06,0.01,4.6,0.01
	c0.73,0.63,0.75,1.39,0.57,2.29c-0.55,2.68-1.27,5.31-1.89,7.96C242.07,367.25,241.75,367.89,240.85,368.03z"/>
<path class="st7" d="M248.17,356.21c-0.91,3.95-1.83,7.9-2.74,11.85c0,0,0.03,0.05,0.03,0.05c-0.84,0.51-1.69,0.97-2.66,0.28
	c-0.9-2.11,1.16-10.71,2.9-12.09c0.24-0.19-0.04,0.08,0.2-0.11C246.65,356.2,247.41,356.2,248.17,356.21z"/>
<path class="st30" d="M245.9,356.19c-1.06,3.92-2.13,7.84-3.19,11.76c-0.05,0.11-0.11,0.22-0.16,0.33
	c-0.58,0.44-1.14,0.35-1.68-0.06c0,0-0.02-0.19-0.02-0.19c1.05-3.91,2.13-7.82,2.73-11.83C244.36,356.2,245.13,356.19,245.9,356.19z
	"/>
<path class="st31" d="M390.55,213.36c-0.16-0.15-0.32-0.3-0.48-0.45c-0.15-0.3-0.3-0.61-0.45-0.91c0.44-0.77,1.18-0.92,1.96-0.97
	c0.69-0.05,1.38-0.06,2.07-0.06c56.36-0.01,112.72-0.01,169.08,0.01c1.14,0,2.31-0.13,3.39,0.4c1.41,1,0.44,2.34,0.51,3.53
	c-0.1,0.54-0.51,0.89-0.85,1.27c-3,3.23-6.31,6.14-9.62,9.04c-0.72,0.63-1.62,0.8-2.51,1.02c-1.3,0.2-2.61,0.14-3.91,0.14
	c-47.05,0-94.09,0-141.14,0c-1.38,0-2.76,0.04-4.13-0.13c-2.57-0.65-4.14-2.74-5.97-4.38c-1.85-1.66-3.8-3.25-5.42-5.16
	c-0.42-0.5-0.87-0.51-1.41-0.42c-0.62-0.22-0.75-0.71-0.72-1.29c-0.1-0.35,0.59-0.61,0.09-1.01
	C390.77,213.84,390.61,213.63,390.55,213.36z"/>
<path class="st9" d="M566.48,212.04c-0.69-0.03-1.38-0.08-2.07-0.08c-57.96,0-115.92,0-173.88,0c-0.31,0-0.61,0.02-0.92,0.03
	c0,0-0.01,0-0.01,0c-0.35-0.91-0.33-1.83-0.01-2.75c59.13,0,118.27-0.01,177.4-0.01c2.54,0,2.67,0.21,1.77,2.79
	C568.02,212.4,567.25,212.84,566.48,212.04z"/>
<path class="st32" d="M566.48,212.04c0.76-0.01,1.53-0.01,2.29-0.02c-0.16,0.29-0.32,0.58-0.48,0.87c-0.16,0.14-0.31,0.28-0.47,0.41
	c0.12,1.24-0.36,2.28-1.05,3.25c-0.19,0.13-0.4,0.17-0.63,0.12c-0.59-0.43-0.54-0.93-0.13-1.45
	C566.06,214.15,565.91,213.04,566.48,212.04z"/>
<path class="st31" d="M389.6,209.24c-0.2,0.92-0.19,1.83,0.01,2.75C388.93,211.07,388.92,210.16,389.6,209.24z"/>
<path class="st33" d="M296.53,251.64c0.02,11.11,0.01,22.22,0.07,33.32c0.01,2.04-0.87,2.95-2.88,2.95
	c-8.2-0.02-16.4,0.02-24.6-0.02c-2.42-0.01-3.22-0.89-2.92-3.26c0.39-3.03,0.96-6.03,1.45-9.04c0.78-1.9,2.19-3.25,3.75-4.53
	c7.4-6.08,14.73-12.24,22.09-18.36C294.35,251.99,295.19,251.03,296.53,251.64z"/>
<path class="st9" d="M362.46,287.93c-1.72,0.05-2.4-0.53-2.39-2.5c0.09-19.31,0.05-38.61,0.07-57.92c0-0.83-0.17-1.69,0.25-2.48
	c10.42,0.19,20.83,0.05,31.25,0.06c1.45,0,2.46,0.2,2.23,1.97c-0.06,0.3-0.18,0.57-0.37,0.81c-1.07,1.03-2.44,0.77-3.71,0.77
	c-7.51,0.05-15.01,0.01-22.52,0.03c-3.54,0.01-3.77,0.26-3.79,3.81c-0.05,16.08,0.07,32.16-0.05,48.25
	c-0.01,1.59-0.05,3.38,2.27,3.56c8.13-0.23,16.26-0.04,24.38-0.12c1.13-0.01,2.32,0.19,3.29-0.66c0.98-1.57,1.09-3.3,1.09-5.08
	c-0.01-12.07-0.02-24.14,0.03-36.21c0-1.04-0.6-2.64,1.43-2.71c0.72,2.53,1.2,5.11,1.72,7.69c0.07,1.27,0.03,2.54,0.04,3.82
	c0.27,10.18,0.43,20.35,0.34,30.53c-0.01,1,0.01,1.99-0.01,2.99c-0.07,3.85-0.35,4.12-4.28,4.12c-9.34,0.01-18.68,0.01-28.03-0.01
	C364.59,288.65,363.38,288.9,362.46,287.93z"/>
<path class="st34" d="M561.03,298.49c-0.77,0.02-1.53,0.05-2.3,0.05c-53.16,0-106.31,0-159.47,0c-0.61,0-1.23-0.02-1.84-0.04
	c0-0.6,0-1.21,0.01-1.81c-0.08-0.32,0.01-0.6,0.25-0.83c1.31-0.92,2.81-0.62,4.24-0.62c19.02-0.03,38.04-0.02,57.07-0.02
	c32.37,0,64.74-0.01,97.1,0.02c1.65,0,3.39-0.39,4.93,0.65C561.73,296.75,561.77,297.62,561.03,298.49z"/>
<path class="st35" d="M390.55,213.36c0.28,0.18,0.57,0.36,0.85,0.54c0.37,0.2,0.3,0.48,0.13,0.78c-0.07,0.55-0.01,1.06,0.41,1.47
	c0.44-0.1,0.55,0.1,0.45,0.5c-23.87-0.02-47.74-0.04-71.61-0.05c-12.97-0.01-25.94,0.01-38.91,0.01c-0.51-1.14-0.8-2.44-2.25-2.84
	c0.98-0.67,2.09-0.38,3.14-0.38C318.69,213.36,354.62,213.36,390.55,213.36z"/>
<path class="st36" d="M270.37,260.36c0.61-4.5,1.27-8.99,2.3-13.41c1.53-2.68,4.15-4.23,6.41-6.15c4.83-4.11,9.74-8.14,14.58-12.24
	c0.81-0.68,1.62-1.48,2.85-0.95c0.01,3.71,0.02,7.43,0.03,11.14c-1.85,3.34-5.19,5.12-7.94,7.5c-5.14,4.44-10.41,8.74-15.65,13.07
	C272.21,259.92,271.54,260.79,270.37,260.36z"/>
<path class="st33" d="M296.51,227.6c-5.49,4.53-10.95,9.1-16.49,13.57c-2.42,1.96-4.55,4.31-7.35,5.78
	c1.1-6.63,2.16-13.26,3.31-19.88c0.26-1.48,1.33-2.16,2.83-2.16c5.06,0,10.11-0.01,15.17,0.01
	C295.72,224.93,296.76,225.66,296.51,227.6z"/>
<path class="st4" d="M392.39,216.63c-0.15-0.17-0.3-0.33-0.45-0.5c0.41-0.79,0.87-0.64,1.44-0.14c3.44,3.03,6.9,6.04,10.08,9.35
	c0.94,0.76,0.98,1.83,0.98,2.9c0.01,3.33,0.12,6.66-0.1,9.99c0.27,14,0.09,27.99,0.09,41.99c0,0.83,0.03,1.7-0.56,2.4
	c-0.19,0.21-0.43,0.34-0.7,0.41c-1.24-0.7-1.13-2-1.38-3.14c-0.34-1.55-0.41-3.14-0.81-4.67c-0.23-0.43-0.38-0.88-0.42-1.37
	c0.13-1.02-0.11-2.02-0.19-3.02c-0.32-1.58-0.47-3.19-0.83-4.76c-0.03-0.24-0.06-0.47-0.11-0.71c-0.23-0.83-0.12-1.71-0.34-2.54
	c-0.36-1.81-0.58-3.63-0.48-5.49c-0.03-8.77-0.5-17.53-0.37-26.3c0.02-1.15,0.28-2.51-1.11-3.24c-0.6-0.28-0.93-0.85-1.36-1.31
	c-1.9-0.84-2.81-2.34-2.89-4.38c-0.14-1.69-0.43-3.37-0.49-5.07C392.39,216.9,392.39,216.76,392.39,216.63z"/>
<path class="st33" d="M270.37,260.36c8.26-6.94,16.53-13.89,24.8-20.82c0.4-0.34,0.91-0.54,1.37-0.81
	c-0.01,2.28-0.01,4.55-0.02,6.83c-0.42,1.17-1.12,2.11-2.09,2.92c-7.55,6.31-15.14,12.56-22.66,18.9c-0.76,0.64-1.53,1.66-2.76,0.73
	C269.46,265.53,269.91,262.95,270.37,260.36z"/>
<path class="st36" d="M269.01,268.11c3.74-2.28,6.79-5.43,10.17-8.17c5.84-4.73,11.56-9.58,17.34-14.38c0,2.02,0.01,4.05,0.01,6.07
	c-5.67,4.14-10.84,8.9-16.28,13.33c-4.26,3.47-8.4,7.08-12.59,10.62C268.11,273.1,268.56,270.6,269.01,268.11z"/>
<path class="st37" d="M399.84,263.04c0.52,0.7,0.36,1.51,0.35,2.29c-0.56,2.57-0.28,5.18-0.1,7.74c0.31,4.53,0.26,9.04,0.17,13.57
	c-0.05,2.53-0.78,3.03-3.33,2.58c-0.77-0.14-1.53-0.09-2.29-0.09c-9.9-0.01-19.8,0-29.7-0.02c-0.83,0-1.69,0.21-2.49-0.22
	c0-0.32,0.01-0.64,0.01-0.96c10.34-0.04,20.69-0.09,31.03-0.13c3.52-0.01,3.51,0,3.52-3.54c0.02-11.19,0.04-22.38,0.07-33.56
	c1.17,0.01,0.95,0.97,1.12,1.65c0.82,3.33,0.46,6.82,1.32,10.15C399.58,262.72,399.63,262.92,399.84,263.04z"/>
<path class="st38" d="M362.45,288.89c11.5,0.01,23.01-0.02,34.51,0.06c1.82,0.01,2.39-0.59,2.37-2.39
	c-0.09-6.21-0.05-12.42-0.02-18.63c0-0.93-0.4-2.07,0.87-2.6c0,0.2,0,0.41,0,0.61c0.07,1.7,0.3,3.37,0.71,5.02
	c-0.19,0.94,0.47,1.81,0.23,2.75c0.15,0.33,0.29,0.66,0.44,0.99c0.35,2.76,0.43,5.57,1.42,8.22l-0.02-0.03
	c0.91,1,1.2,2.19,1.07,3.51c-0.17,0.52-0.12,1.04-0.06,1.57c0.15,1.33-0.52,2-1.83,2.03c-1.16,0.03-2.27,0.17-3.24,0.87
	c-0.6,0.6-0.7,1.35-0.61,2.15c0.16,1.19,0.22,2.36-0.85,3.22c-0.01,0.15-0.03,0.3-0.04,0.45c-0.8-1.27-0.38-2.69-0.41-4.03
	c-0.07-3.31-0.03-3.31-3.24-3.31c-9.48,0-18.96,0.01-28.45-0.01C364.35,289.34,363.32,289.59,362.45,288.89z"/>
<path class="st2" d="M266.52,243.71c-0.7-4.07-0.17-8.18-0.29-12.27c-0.09-3.21-0.64-3.59-3.7-2.09c0.07-1.63-0.43-3.21,0.39-4.72
	c1.62-1.84,4.71-2.37,6.88-1.18C268.7,230.2,267.61,236.96,266.52,243.71z"/>
<path class="st39" d="M269.79,223.45c-2.29,0.39-4.58,0.79-6.88,1.18c-0.85-1.15-0.45-2.27,0.07-3.39c2.27-1.54,4.6-2.72,7.34-1.05
	C270.14,221.27,269.96,222.36,269.79,223.45z"/>
<path class="st9" d="M393.25,222.12c-0.2,2.71,1.77,2.8,3.64,3.01c-0.35,1.28-1.77,0.99-2.5,1.71c-0.25,0.22-0.53,0.35-0.87,0.26
	c0.05-1.65-0.88-1.95-2.35-1.94c-9.43,0.05-18.86,0.03-28.29,0.02c-0.84,0-1.67-0.09-2.51-0.15c8.36-0.05,16.71-0.11,25.06-0.15
	c1.69-0.01,3.37,0.01,5.06,0c2.66-0.01,2.78-0.19,1.95-2.76C392.72,221.84,392.98,221.84,393.25,222.12z"/>
<path class="st2" d="M270.31,220.19c-2.45,0.35-4.89,0.7-7.34,1.05c1.51-3.69,4.71-3.34,7.8-3.26
	C270.62,218.71,270.47,219.45,270.31,220.19z"/>
<path class="st2" d="M263,265.42c-1.11-1.63-0.58-3.49-0.37-5.15c0.13-1,0.8,0.09,1.19,0.35C263.55,262.21,263.27,263.81,263,265.42
	z"/>
<path class="st40" d="M393.25,222.12c-0.27,0-0.53,0-0.8,0c0.3-1.7-0.69-3.39-0.06-5.09C392.68,218.72,392.96,220.42,393.25,222.12z
	"/>
<path class="st4" d="M599.22,315.99c-1.07,0.02-2.15,0.07-3.22,0.07c-78.93,0-157.86,0-236.79,0.01c-1.07,0-2.15,0.05-3.22,0.07
	c-0.2,0.09-0.34,0.04-0.42-0.17c0-4.05,0.07-8.11-0.04-12.16c-0.05-1.85,0.5-2.55,2.45-2.54c13.15,0.08,26.31,0.06,39.46,0.07
	c0.57,0.49,0.81,1.13,0.86,1.86c0.29,1.21,1.3,1.2,2.2,1.21c7.21,0.07,14.42,0.03,21.63,0.01c4.82-0.01,9.64-0.01,14.46,0
	c6.74,0.01,13.49,0.05,20.23,0.05c10.26,0,20.53-0.01,30.79-0.05c9.19-0.04,18.39-0.02,27.58-0.07c13.79-0.07,27.58,0.11,41.37,0.07
	c1.26,0,2.86,0.56,3.56-1.24c0.04-0.73,0.3-1.36,0.87-1.83c12.01-0.01,24.03,0,36.04-0.07c1.76-0.01,2.22,0.69,2.19,2.32
	C599.15,307.73,599.21,311.86,599.22,315.99z"/>
<path class="st4" d="M303.97,316.01c-0.01-30.61-0.01-61.22-0.06-91.83c0-1.85,0.49-2.56,2.45-2.55c15.27,0.07,30.54,0.06,45.81,0
	c1.94-0.01,2.48,0.65,2.47,2.53c-0.05,30.61-0.05,61.22-0.05,91.83c-0.08,0.13-0.16,0.26-0.24,0.39c-0.8,0.79-1.84,0.68-2.82,0.68
	c-14.83,0.05-29.66,0.04-44.5,0c-0.98,0-2.01,0.1-2.83-0.66C304.13,316.27,304.05,316.14,303.97,316.01z"/>
<path class="st9" d="M561.39,299.07c0,0.58,0,1.15,0,1.73c-0.69,0.03-1.38,0.08-2.07,0.08c-53.34,0-106.67,0-160.01,0
	c-0.61,0-1.22-0.05-1.84-0.07c-0.53-0.58-0.52-1.16-0.01-1.75c0.84-0.03,1.68-0.08,2.53-0.08c52.88,0,105.75,0,158.63,0
	C559.55,298.98,560.47,299.04,561.39,299.07z"/>
<path class="st41" d="M397.46,303.16c-0.01-0.61-0.01-1.21-0.02-1.82c54.51,0,109.03,0.01,163.54,0.01
	c-0.01,0.6-0.02,1.21-0.02,1.81c-0.82,1.05-2.01,1.01-3.15,1.01c-10.66,0.05-21.33,0.01-31.99,0c-11.81,0-23.63,0.02-35.44,0
	c-16.34-0.02-32.68,0.03-49.02,0c-13.27-0.02-26.54,0.04-39.81,0C400.12,304.17,398.57,304.5,397.46,303.16z"/>
<path class="st9" d="M397.47,299.06c0,0.58,0,1.16,0,1.75c-13.33,0.02-26.66,0.03-39.99,0.1c-1.54,0.01-1.9-0.58-1.49-1.93
	C369.82,299.01,383.65,299.03,397.47,299.06z"/>
<path class="st1" d="M303.95,318.35c-0.56,0.31-1.16,0.5-1.81,0.44c-0.02-0.88-0.03-1.77-0.05-2.65c0.63-0.05,1.25-0.09,1.88-0.14
	c0,0-0.04,0.11-0.04,0.11C304.61,316.86,304.72,317.6,303.95,318.35z"/>
<path class="st1" d="M355.57,315.97c0.14,0.05,0.28,0.1,0.42,0.17c0.02,0.92,0.04,1.84-0.46,2.68c-0.3,0-0.61,0.01-0.91,0.01
	c-0.11-0.08-0.21-0.16-0.32-0.24c-0.63-0.92-0.44-1.74,0.32-2.49l-0.04-0.11C354.91,315.98,355.24,315.97,355.57,315.97z"/>
<path class="st2" d="M260.2,239.64c-4.22-4.04-8.44-8.08-12.35-12.43c3.98-0.65,7.96-1.31,11.94-1.96c0.89,1.91,0.35,3.92,0.41,5.89
	C260.3,233.97,260.21,236.8,260.2,239.64z"/>
<path class="st4" d="M561.03,298.49c-0.01-0.73-0.02-1.45-0.02-2.18c-0.69-1.2-0.53-2.5-0.41-3.79c-0.15-0.68-0.12-1.44-0.9-1.81
	c-0.89-0.44-1.82-0.67-2.8-0.68c-0.78-0.01-1.49-0.15-1.88-0.94c-0.37-1.24,0.38-2.4,0.24-3.63c0.06-0.59,0.34-1.14,0.27-1.75
	c-0.07-0.36-0.05-0.71,0.03-1.06c0.61-1.68,0.62-3.45,0.78-5.2c-0.02-0.36,0.03-0.71,0.14-1.05c0.29-0.63,0.53-1.27,0.55-1.98
	c-0.08-1.15,0.45-2.24,0.29-3.4c-0.01-0.35,0.06-0.69,0.18-1.02c0.26-0.63,0.49-1.27,0.37-1.97c-0.08-0.35-0.08-0.7-0.01-1.05
	c0.43-1.73,0.67-3.49,0.69-5.28c0.01-0.25,0.06-0.48,0.14-0.72c0.79-1.67,0.59-3.53,0.99-5.27c0.17-1.07,0.22-2.14,0.26-3.22
	c0.01-0.25,0.06-0.48,0.14-0.72c0.73-1.68,0.74-3.47,0.81-5.25c-0.03-0.37,0.01-0.73,0.1-1.08c0.42-1,0.41-2.09,0.66-3.12
	c0.11-0.95,0.31-1.87,0.88-2.67c0.9-0.5,1.22,0.17,1.58,0.78c0.22,0.59,0.04,1.23,0.2,1.83c0.03,0.19,0.03,0.38,0.02,0.57
	c-0.08,0.46-0.1,0.92-0.02,1.38c0.02,0.19,0.01,0.38-0.01,0.57c-0.05,0.47-0.3,0.9-0.3,1.39c0,0.2,0.01,0.39,0.02,0.59
	c0.09,0.41,0,0.81-0.03,1.21c-0.01,0.21-0.02,0.42-0.02,0.62c0.01,1.15-0.1,2.3,0.28,3.42c0.13,0.59-0.08,1.19,0.07,1.78
	c0.02,0.2,0.02,0.39,0,0.59c-0.04,0.48-0.3,0.91-0.31,1.4c0,0.19,0,0.39,0.01,0.58c0.09,0.4,0.01,0.8-0.01,1.19
	c0,0.21,0,0.41,0.02,0.62c0.09,0.42,0.01,0.84-0.02,1.26c-0.01,0.21-0.02,0.42-0.02,0.64c0.01,1.16-0.1,2.32,0.28,3.45
	c0.13,0.59-0.07,1.2,0.07,1.79c0.02,0.2,0.02,0.39,0,0.59c-0.04,0.48-0.3,0.91-0.31,1.4c0,0.19,0,0.39,0.01,0.58
	c0.09,0.4,0.01,0.8-0.01,1.2c0,0.21,0,0.41,0.02,0.62c0.09,0.43,0.01,0.85-0.02,1.27c-0.01,0.22-0.02,0.44-0.02,0.66
	c-0.02,1.23-0.05,2.45,0.33,3.64c0.06,0.56-0.2,1.1-0.07,1.66c0.08,0.22,0.17,0.42,0.29,0.62c0.51,0.69,1.25,0.49,1.92,0.49
	c7.29,0.01,14.58,0.01,21.87,0c0.66,0,1.41,0.19,1.88-0.53c0.1-0.2,0.19-0.41,0.25-0.62c0.05-0.43,0.12-0.86,0.19-1.3
	c0.03-0.32,0.04-0.64,0.05-0.96c0-0.32,0-0.64,0-0.95c0-0.32-0.01-0.63-0.03-0.95c-0.06-0.42-0.09-0.83-0.02-1.25
	c0.01-0.21,0.01-0.42,0-0.62c-0.06-0.41-0.07-0.83,0-1.24c0.01-0.21,0.01-0.41,0-0.62c-0.06-0.41-0.06-0.83,0-1.24
	c0-0.21,0.01-0.41,0-0.62c-0.06-0.41-0.06-0.83,0-1.24c0-0.21,0-0.42-0.01-0.62c-0.07-0.42-0.04-0.83,0.02-1.25
	c0.02-0.31,0.03-0.63,0.03-0.94c0-0.31,0-0.63,0-0.94c0-0.31-0.01-0.62-0.03-0.94c-0.06-0.41-0.09-0.83-0.02-1.24
	c0.01-0.21,0.01-0.41,0-0.62c-0.06-0.41-0.07-0.83,0-1.24c0.01-0.21,0.01-0.41,0-0.62c-0.06-0.41-0.06-0.82,0-1.24
	c0-0.21,0.01-0.41,0-0.62c-0.06-0.41-0.06-0.83,0-1.24c0-0.21,0-0.42-0.01-0.62c-0.07-0.42-0.04-0.83,0.02-1.25
	c0.02-0.31,0.03-0.63,0.03-0.94c0-0.31,0-0.63,0-0.94c0-0.31-0.01-0.62-0.03-0.94c-0.06-0.41-0.09-0.83-0.02-1.24
	c0.01-0.21,0.01-0.41,0-0.62c-0.06-0.41-0.07-0.83,0-1.24c0.01-0.21,0.01-0.41,0-0.62c-0.06-0.41-0.06-0.82,0-1.24
	c0-0.21,0.01-0.41,0-0.62c-0.06-0.41-0.05-0.83,0-1.24c0-0.21,0-0.42-0.01-0.62c-0.07-0.42-0.04-0.83,0.02-1.25
	c0.02-0.31,0.03-0.63,0.03-0.94c0-0.32,0-0.63,0-0.95c0-0.32-0.01-0.63-0.03-0.95c-0.07-0.43-0.07-0.85-0.02-1.28
	c0-0.22,0-0.44-0.02-0.65c-0.07-0.44-0.11-0.88-0.21-1.32c-0.11-0.22-0.23-0.43-0.38-0.62c-0.77-0.75-1.74-0.44-2.62-0.45
	c-7.01-0.03-14.03-0.05-21.04,0.01c-1.85,0.02-2.99-0.47-2.85-2.54c0-0.27-0.01-0.54-0.01-0.8c0.09-1.29,0.43-2.54,0.49-3.84
	c0.46-2.55,1-5.09,1.07-7.7c-0.01-0.51,0.09-1,0.32-1.46c0.23-0.47,0.67-0.72,1.05-1.03l0.05,0.07c0.76-0.96,1.84-1,2.92-1
	c8.95-0.04,17.9-0.04,26.85,0c1.08,0.01,2.17,0.02,2.91,1.01c0,27.31-0.01,54.62-0.01,81.93
	C586.45,298.51,573.74,298.5,561.03,298.49z"/>
<path class="st35" d="M599.17,216.59c-10.89,0-21.78,0-32.68-0.01c-0.05-1.29,0.03-2.53,1.33-3.28c9.36,0.02,18.72,0.04,28.07,0.06
	C599.21,213.37,599.21,213.37,599.17,216.59z"/>
<path class="st9" d="M285.98,195.87c2.77,0.01,5.54,0.01,8.31,0.02C291.52,196.56,288.75,196.59,285.98,195.87z"/>
<path class="st21" d="M470.22,381.94c-1.73-4.3-2.25-8.77-1.77-13.36c0.45-0.56,1.01-0.94,1.75-0.95c2.51-0.03,5.04-0.37,7.53,0.27
	c1.12,0.71,1.27,1.78,1.19,3.01c-0.5,7.33,4.92,14.22,11.88,15.13c8.06,1.05,15.06-3.73,16.62-11.36c0.26-1.29,0.09-2.6,0.12-3.9
	c0.02-1.11,0.15-2.15,1.18-2.83c2.52-0.71,5.08-0.33,7.63-0.3c0.73,0.01,1.27,0.4,1.72,0.95c0.77,7.77-1.09,14.68-6.66,20.37
	c-0.51,0.52-1.03,0.98-0.21,1.65c-0.79-0.06-1.47,0.09-2.12,0.63C497.01,401.28,477.62,397.84,470.22,381.94z"/>
<path class="st1" d="M339.4,381.93c2.71-2.49,5.77-3.35,9.56-3.33c36.8,0.15,73.6,0.12,110.39,0.02c2.73-0.01,4.71,0.72,6.27,2.85
	c-0.27,0.13-0.55,0.37-0.82,0.36c-6.74-0.03-13.49,0.36-20.23-0.22c-0.92-0.08-1.84-0.13-2.75-0.13
	c-14.81-0.01-29.63-0.33-44.43,0.09c-12.5,0.36-25.01-0.09-37.49,0.45c-6.67,0.29-13.33,0.21-20,0.35
	c-0.15,0.17-0.33,0.19-0.53,0.09C339.25,382.28,339.25,382.1,339.4,381.93z"/>
<path class="st1" d="M339.44,382.38c0.15,0,0.3,0,0.46,0c-3.23,0.93-6.53,0.33-9.8,0.42c-1.79,0.05-3.67,0.5-5.41-0.39
	c0,0,0.03-0.03,0.03-0.03C329.63,381.99,334.53,381.99,339.44,382.38z"/>
<path class="st42" d="M518.06,368.58c-3.2-0.01-6.4-0.01-9.59-0.02c-0.37,0.01-0.68-0.14-0.94-0.4c-1.5-3.29-3.2-6.38-6.38-8.49
	c-7.23-4.78-17.18-2.08-20.9,5.79c-0.43,0.9-0.69,1.87-1.26,2.7c-0.26,0.27-0.57,0.41-0.94,0.4c-3.2,0-6.4,0.01-9.6,0.01
	c1.34-12.11,11.49-21.94,24.8-21.96C506.4,346.6,516.64,356.4,518.06,368.58z"/>
<path class="st42" d="M256.44,364.83c0.05-1.07,0.09-2.14,0.14-3.22c2.25-4.05,4.97-7.66,8.78-10.45
	c14.31-10.45,36.09-1.67,38.99,15.78c0.09,0.52,0.06,1.07,0.08,1.6c-1.98,0-3.97,0.01-5.95,0.01c-3.24,0-3.24,0-3.29,3.23
	c-1.81-0.29-0.82-1.84-1.25-2.75c-1.38-6.23-5.27-10.12-11.41-11.44c-5.94-1.28-11.77,1.41-15.03,6.45
	c-0.97,1.49-1.46,3.18-1.94,4.87c-0.15,0.7-0.1,1.55-1.19,1.5c0.1-1.35-0.52-1.9-1.88-1.86c-1.96,0.06-3.92,0-5.89-0.01
	C256.54,367.31,256.49,366.07,256.44,364.83z"/>
<path class="st1" d="M339.44,382.38c-4.91,0-9.81,0-14.72,0c0.57-0.77,1.4-0.43,2.11-0.44c4.19-0.03,8.38-0.01,12.57-0.01
	C339.4,382.08,339.42,382.23,339.44,382.38z"/>
<path class="st43" d="M264.35,370.41c0.51-0.53,0.44-1.2,0.46-1.85c0.56-0.48,1.12-0.98,1.94-0.56c0.18,0.17,0.31,0.37,0.39,0.59
	c0.11,2.57-0.12,5.14,0.88,7.67c1.98,4.99,6.37,8.03,11.95,7.98c5.19-0.05,9.88-3.39,11.56-8.23c0.61-1.75,0.97-3.53,0.83-5.4
	c-0.07-0.84-0.16-1.7,0.63-2.32c0.64-0.34,1.21-0.21,1.73,0.25c0.13,1.08-0.26,2.24,0.47,3.24c-0.65,7-3.8,12.21-10.72,14.54
	c-9.61,3.24-19.8-3.93-20.11-14.09C264.33,371.63,264.35,371.02,264.35,370.41z"/>
<path class="st44" d="M242.71,367.95c0.92,0.05,1.83,0.11,2.75,0.16c-0.3,1.22-0.59,2.44-0.89,3.65c-0.81-0.01-1.61-0.02-2.42-0.03
	c-1.1-1.38-0.62-2.52,0.53-3.56L242.71,367.95z"/>
<path class="st25" d="M242.68,368.18c-0.18,1.19-0.35,2.37-0.53,3.56c-1.75,0.33-2.14-0.44-1.63-1.98c0.16-0.49,0.23-1.02,0.34-1.53
	C241.47,368.21,242.08,368.19,242.68,368.18z"/>
<path class="st0" d="M354.62,318.82c0,14.56-0.05,29.12,0.03,43.68c0.01,2.17-0.56,2.92-2.82,2.89
	c-11.11-0.11-22.23-0.05-33.34-0.05c-3.81,0-3.95-0.03-5.24-3.72c-1.53-4.39-3.49-8.61-6.67-11.95c-2.39-2.51-2.72-5.18-2.67-8.31
	c0.12-7.51,0.04-15.02,0.04-22.53c0.75-0.97,1.84-1.01,2.92-1.01c14.94-0.04,29.88-0.04,44.82,0
	C352.78,317.82,353.86,317.86,354.62,318.82L354.62,318.82z"/>
<path class="st1" d="M354.62,318.82c-16.89,0-33.78,0-50.67,0.01c0-0.16,0-0.32-0.01-0.48c-0.01-0.74-0.01-1.49-0.02-2.23
	c16.9-0.01,33.8-0.01,50.69-0.02C354.62,317,354.62,317.91,354.62,318.82z"/>
<path class="st9" d="M590.11,332.31c0.04,2.16-1.54,3.86-3.64,3.91c-2.01,0.05-3.82-1.71-3.86-3.75c-0.04-2.04,1.67-3.85,3.69-3.91
	C588.38,328.5,590.07,330.17,590.11,332.31z"/>
<path class="st9" d="M253.31,332.36c0.01,2.1-1.66,3.84-3.72,3.86c-2.09,0.02-3.74-1.65-3.75-3.8c-0.01-2.15,1.61-3.84,3.7-3.86
	C251.59,328.54,253.3,330.26,253.31,332.36z"/>
<path class="st45" d="M403.43,238.24c0.01-4.3,0.02-8.6,0.03-12.9c50.35,0,100.69-0.01,151.04-0.01c0.63,0.4,0.92,1,0.95,1.73
	c0.13,3.36,0.18,6.71-0.05,10.06c-0.03,0.47-0.26,0.87-0.56,1.23c-0.93,0.78-1.94,0.87-3,0.31c-1.18-0.99-0.69-2.36-0.76-3.58
	c-0.09-1.65,0.03-3.32-1.28-4.62c-1.01-0.53-2.1-0.41-3.17-0.41c-27.93-0.01-55.86-0.01-83.8,0c-1.07,0-2.16-0.12-3.14,0.44
	c-1.18,1.22-1.14,2.76-1.23,4.3c-0.07,1.26,0.42,2.63-0.6,3.75c-0.79,0.51-1.58,0.51-2.38,0.05c-1.07-0.99-0.62-2.3-0.67-3.48
	c-0.06-1.62-0.01-3.24-1.1-4.59c-3.67-1.03-7.4-0.3-11.1-0.41c-0.53-0.02-1.05,0.17-1.59,0.05c-1.51-0.59-3.04-0.08-4.56-0.09
	c-8.05-0.05-16.1-0.03-24.15-0.01c-1.14,0-2.31-0.17-3.36,0.46c-1.14,1.29-1.1,2.87-1.17,4.45c-0.05,1.23,0.4,2.58-0.68,3.63
	C405.8,239.41,404.56,239.39,403.43,238.24z"/>
<path class="st4" d="M554.5,238.22c0-4.29,0-8.59,0-12.88c3.55-3.19,7.09-6.38,10.64-9.57c1.21,0.18,0.66,1.21,0.9,1.86
	c0,0.43,0,0.85-0.01,1.28c-1.19,2.42-0.75,5.18-1.59,7.68c0.28,1.28-0.61,2.47-0.27,3.75c0,0.19,0,0.39,0,0.58
	c-0.52,0.45-0.42,1.06-0.43,1.64c-0.01,0.52,0.22,1.03,0.14,1.56c-0.14,0.54-0.32,1.06-0.33,1.63c-0.06,1.05-0.03,2.12-0.53,3.1
	c-0.53,1.06-0.57,2.25-0.9,3.37c0.3,1.14-0.56,2.19-0.25,3.33c0,0.34,0,0.68,0,1.02c-0.89,1.71-0.83,3.58-0.92,5.42
	c0,0.19,0,0.38,0,0.56c-0.54,1.02-0.78,2.11-0.69,3.26c-0.44,1.77-0.69,3.56-0.7,5.38c0,0.19,0,0.38,0.01,0.57
	c-0.87,1.71-0.74,3.6-0.92,5.43c0.01,0.32,0.01,0.65,0.02,0.97c-0.63,0.53-0.42,1.27-0.46,1.94c0,0.29-0.01,0.58-0.01,0.87
	c-0.48,1.09-0.75,2.23-0.69,3.43c-0.08,0.71-0.54,1.38-0.21,2.13c-0.01,0.3-0.02,0.6-0.03,0.89c-0.89,1.71-0.83,3.58-0.92,5.42
	c0.01,0.31,0.02,0.62,0.03,0.93c-0.5,0.49-0.57,1.16-0.7,1.79c0.16,1.22-0.51,2.33-0.5,3.53c-0.11,0.29-0.32,0.41-0.62,0.37
	c-0.26-0.14-0.47-0.33-0.62-0.58c-0.55-1-0.42-2.09-0.42-3.15c-0.03-14.56-0.03-29.11,0-43.67
	C553.51,240.72,553.26,239.27,554.5,238.22z"/>
<path class="st46" d="M566.04,217.63c-0.3-0.62-0.6-1.24-0.9-1.86c0.18-0.35,0.48-0.51,0.87-0.54c0.04,0.47,0.04,0.95,0.44,1.29
	C566.31,216.89,566.17,217.26,566.04,217.63z"/>
<path class="st47" d="M391.54,214.67c-0.04-0.26-0.09-0.52-0.13-0.78c0.03-0.35,0.06-0.7,0.09-1.05c0.11,0.06,0.29,0.09,0.31,0.17
	C392,213.6,391.98,214.17,391.54,214.67z"/>
<path class="st48" d="M394.57,285.18c-9.63-0.03-19.27-0.07-28.9-0.1c-1.31-1.7-1.87-3.49-1.32-5.71c0.7-2.84,0.24-5.79,0.25-8.68
	c0.06-11.32,0.07-22.65,0.05-33.97c0-1.07-0.01-2.14,0.02-3.22c0.08-3.42,0.67-4.05,4.03-4.1c4.44-0.07,8.88-0.02,13.33-0.02
	c2.91,0,5.82-0.02,8.73,0.01c0.92,0.01,1.84-0.04,2.71,0.36c0.43,0.13,0.77,0.39,1.06,0.72c0.51,0.87,0.66,1.85,0.82,2.83
	c0.05,0.86,0.01,1.71,0.1,2.57c0.76,2.18-0.61,4.14-0.59,6.29c0.11,13.54,0.07,27.08,0.04,40.63
	C394.9,283.58,395.26,284.47,394.57,285.18z"/>
<path class="st43" d="M393.77,230.4c-8.5,0-17,0.06-25.51-0.04c-2.01-0.02-2.64,0.59-2.63,2.62c0.08,12.09,0.04,24.19,0.04,36.28
	c0,2.75,0.23,5.53-0.07,8.24c-0.28,2.56,0,5.06,0.06,7.58c-3.25,0.23-3.25,0.23-3.25-3.01c0-17.34,0.03-34.68-0.04-52.02
	c-0.01-1.88,0.44-2.47,2.4-2.45c9.51,0.09,19.03,0.01,28.54,0c1.23,0.09,1.03,1.01,1.06,1.8
	C394.32,229.82,394.15,230.18,393.77,230.4z"/>
<path class="st9" d="M394.57,285.18c0.04-3.37,0.12-6.74,0.13-10.11c0.04-13.18,0.06-26.37,0.08-39.55c0.37-0.84,0.05-1.7,0.11-2.56
	c-0.52-0.86-0.37-1.87-0.64-2.78c-0.02-0.31-0.02-0.63-0.04-0.94c-0.17-0.79-0.21-1.61-0.58-2.35c0.08-2.44,1.99-1.52,3.26-1.78
	c0.07,0.67,0.14,1.34,0.21,2.02c0.53,0.59,0.85,1.25,0.86,2.06c0.08,4.21,0.1,8.42-0.01,12.63c-0.02,0.62-0.11,1.22-0.55,1.71
	c-0.59,0.51-0.98,0.32-1.09-0.38c-0.16-1.02-0.62-2.03-0.24-3.09c-1.63-0.15-0.88,1.11-0.88,1.7c-0.06,5.05-0.04,10.09-0.04,15.14
	c0,8.49,0.01,16.97-0.01,25.46C395.14,283.33,395.45,284.39,394.57,285.18z"/>
<path class="st49" d="M399.84,263.04c-0.03,0.07-0.05,0.14-0.1,0.2c-0.22,0.29-0.38,0.19-0.43-0.11c-0.63-3.72-1.25-7.44-1.88-11.15
	c-0.07-0.44-0.23-0.86-0.35-1.29c-0.05-1.2-0.1-2.41-0.15-3.61c-0.2-0.39-0.22-0.76,0.09-1.11c1.23,0.17,1.26,1.11,1.36,2.05
	c0.36,3.19,0.45,6.39,0.85,9.58C399.43,259.41,399.63,261.23,399.84,263.04z"/>
<path class="st50" d="M397.06,246.04c-0.04,0.35-0.09,0.7-0.13,1.05c-0.24-2.34-1.97-4.5-0.86-7.01c0.29,1.21,0.58,2.42,0.87,3.63
	C397.77,244.45,397.78,245.22,397.06,246.04z"/>
<path class="st51" d="M393.64,226.9c0.94,0.39,0.44,1.48,1,2.05c-0.18,0.28-0.24,0.78-0.77,0.43c-0.16-0.6,0.05-1.31-0.54-1.78
	c0.07-0.17,0.13-0.34,0.2-0.51C393.52,227.1,393.64,226.9,393.64,226.9z"/>
<path class="st6" d="M561.33,292.12c-0.08,1.4,0.32,2.84-0.33,4.19c-5.14-0.01-10.27-0.04-15.41-0.04
	c-49.38-0.01-98.75-0.01-148.13-0.02c0-1.27,0.01-2.53,0.01-3.8c0.63-0.64,1.42-0.85,2.3-0.87c1-0.02,2-0.04,2.99-0.04
	c51.35,0,102.71,0,154.06,0.01C558.34,291.56,559.92,291.26,561.33,292.12z"/>
<path class="st3" d="M403.43,238.24c1.22,0.01,2.43,0.01,3.65,0.02c0.12,0.09,0.23,0.19,0.35,0.28c0.56,0.91,0.38,1.92,0.38,2.89
	c0.02,5.39,0.01,10.79,0.01,16.18c0,7.79,0,15.58,0,23.36c-0.21,2.81,0.46,5.67-0.41,8.45c-3.52,1.41-3.97,0.28-3.97-3.34
	c-0.1-1.07-1.29-1.99-0.46-3.19c0.67-0.89,0.41-1.92,0.42-2.89C403.42,266.09,403.42,252.16,403.43,238.24z"/>
<path class="st37" d="M397.06,246.04c-0.04-0.78-0.08-1.55-0.12-2.33c0.05-5.52,0.11-11.04,0.16-16.56c1.47-0.14,2.24,0.29,2.22,2
	c-0.08,9.48-0.07,18.97-0.09,28.45c-0.59-3.27-1.18-6.54-1.75-9.82C397.38,247.18,397.44,246.56,397.06,246.04z"/>
<path class="st52" d="M403,282.93c-1.42-2.58-1.6-5.37-1.42-8.22C402.33,277.4,402.64,280.17,403,282.93z"/>
<path class="st53" d="M400.7,270.93c-0.44-1.63-0.99-3.26-0.5-4.99c0.29,1.66,0.59,3.33,0.88,4.99
	C400.94,271.24,400.82,271.24,400.7,270.93z"/>
<path class="st40" d="M400.7,270.93c0.12,0,0.25,0,0.37,0c-0.21,0.93,0.91,1.84,0.06,2.78C400.74,272.83,400.62,271.89,400.7,270.93
	z"/>
<path class="st9" d="M561.33,292.12c-1.1,0.5-2.27,0.3-3.41,0.3c-52.49,0.01-104.97,0.01-157.46,0.01c-1,0-1.99,0.02-2.99,0.02
	c-0.21-0.93-0.41-1.87,0.1-2.77c3.19-0.26,6.38,0.02,9.57-0.17c2.76-0.8,5.58-0.2,8.37-0.39c9.73,0.26,19.45-0.44,29.18-0.35
	c4.52,0.04,9.04-0.04,13.55,0.35c24.15,0,48.31-0.01,72.46,0.02c2.3,0,4.59-0.37,6.88-0.22c1.26-0.1,2.52,0.13,3.77,0.18
	c1.04,0.03,2.07,0.02,3.11,0.01c0.5-0.01,0.99-0.04,1.48-0.15c0.36-0.11,0.71-0.22,1.09-0.24c1.5,0.06,3.01,0.09,4.5,0.35
	c1.2-0.03,2.36,0.17,3.51,0.46c1.92,0.12,3.84-0.04,5.76,0.11C561.78,290.3,561.21,291.28,561.33,292.12z"/>
<path class="st40" d="M407.14,289.59c-3.19,0.27-6.38,0.22-9.57,0.09c1.15-0.64,2.39-0.26,3.58-0.24c1.58,0.03,2.59-0.19,1.95-2.12
	c-0.14-0.42-0.13-0.92,0.34-1.23c0.36,2.02,0.74,4.01,3.61,3.23C407.08,289.4,407.11,289.49,407.14,289.59z"/>
<path class="st54" d="M397.46,303.16c54.5,0,109,0,163.5,0c0.57,1.82-0.09,2.36-1.97,2.34c-14.64-0.12-29.27-0.17-43.91-0.17
	c-12.87,0-25.75,0.13-38.62,0.13c-14.48,0-28.97-0.12-43.45-0.12c-11.19,0-22.38,0.05-33.57,0.17
	C397.55,305.52,396.88,304.99,397.46,303.16z"/>
<path class="st0" d="M348.14,244.71c0,13.04,0.02,26.07,0.01,39.11c0,3.27-0.83,4.11-4.05,4.13c-3.84,0.02-7.67-0.06-11.5,0.03
	c-1.73,0.04-2.45-0.42-2.43-2.32c0.1-8.89,0.06-17.79,0.07-26.69c0.48-1.35,1.43-2.33,2.53-3.19c4.27-3.36,8.36-6.94,12.59-10.34
	C346.15,244.81,346.91,243.82,348.14,244.71z"/>
<path class="st33" d="M310.48,251.51c-0.03-7.98-0.05-15.96-0.08-23.94c-0.01-1.69,0.9-2.61,2.53-2.63
	c4.84-0.05,9.67,0.01,14.51-0.04c1.16-0.01,1.45,0.49,1.41,1.52c-0.07,1.76-0.06,3.53-0.08,5.29c-0.89,1.3-2.27,1.04-3.53,1.06
	c-5.08,0.09-5.08,0.08-5.08,5.23c0,1.82,0.06,3.65-0.31,5.45c-0.01,0.24-0.03,0.48-0.06,0.72c-2.01,3.15-5.06,5.17-8.01,7.3
	C311.41,251.74,310.92,251.82,310.48,251.51z"/>
<path class="st0" d="M328.78,260.39c0.01,8.49,0,16.97,0.07,25.46c0.01,1.59-0.53,2.19-2.13,2.13c-2.67-0.1-5.35-0.04-8.03-0.06
	c-0.24-0.39-0.48-0.79-0.48-1.27c-0.03-5.79-0.37-11.59,0.19-17.37c0.03-0.25,0.05-0.51,0.06-0.76c2.36-3.41,5.84-5.6,9.03-8.1
	C327.85,260.14,328.35,260.09,328.78,260.39z"/>
<path class="st33" d="M319.04,268.76c0.01,5.72,0.02,11.45,0.03,17.17c0,0.68,0.05,1.38-0.37,1.99c-1.75,0-3.49-0.02-5.24-0.01
	c-2.03,0.01-3.11-0.85-3.07-3.01c0.07-3.11,0.04-6.22,0.05-9.34c1.39-3.3,4.49-4.83,7.1-6.87
	C317.96,268.37,318.55,268.36,319.04,268.76z"/>
<path class="st6" d="M311.7,305.55c-1.17,0-1.31-0.74-1.3-1.69c0.02-3.29,0.04-6.57-0.01-9.86c-0.02-1.24,0.38-1.83,1.7-1.8
	c2.22,0.05,4.44,0.03,6.65-0.03c1.32-0.04,1.74,0.61,1.74,1.82c-0.01,2.75,0.04,5.5,0.06,8.26c0.41,0.79,0.18,1.64,0.21,2.46
	c0.02,0.69-0.33,1.32-0.99,1.32C317.07,306.02,314.32,306.78,311.7,305.55z"/>
<path class="st0" d="M348.1,231.73c0.01,2.32,0.03,4.63,0.04,6.95c-0.61,1.25-1.49,2.26-2.57,3.15c-4.11,3.38-8.23,6.75-12.33,10.14
	c-0.86,0.71-1.69,1.64-3.01,0.98c0-2.29,0.01-4.58,0.01-6.87c0.53-1.52,1.7-2.51,2.9-3.46c4.6-3.65,8.87-7.74,13.73-11.08
	c0.21-0.09,0.43-0.12,0.65-0.11C347.73,231.48,347.93,231.58,348.1,231.73z"/>
<path class="st55" d="M347.25,231.81c-2.99,3.19-6.62,5.64-9.88,8.52c-2.29,2.02-4.76,3.84-7.14,5.75c0-3.7,0-7.4,0-11.1
	c0.74-1.9,2.4-2.85,4-3.87c0.27-0.01,0.54-0.02,0.81-0.03c3.19-0.43,6.39-0.35,9.59-0.29C345.61,230.82,346.65,230.75,347.25,231.81
	z"/>
<path class="st55" d="M328.81,236.38c-0.01,3.7-0.01,7.4-0.02,11.1c-1.76,3.6-5.24,5.4-8.21,7.71c-0.71,0.55-1.61,0.48-2.13-0.5
	c-0.42-3.54-0.82-7.07,0.64-10.5l0.07,0.02c1.95-3.61,5.49-5.49,8.58-7.86C328.03,236.13,328.45,236.17,328.81,236.38z"/>
<path class="st55" d="M330.22,252.94c3.62-2.31,6.64-5.39,10.04-7.98c2.67-2.04,5.01-4.5,7.87-6.29c0,2.01,0,4.02,0,6.03
	c-2.8,1.47-4.91,3.84-7.36,5.77c-3.55,2.79-7.03,5.66-10.54,8.5C330.23,256.96,330.23,254.95,330.22,252.94z"/>
<path class="st36" d="M319.08,244.2c0.03,3.68,0.06,7.37,0.1,11.05c0.15,0.18,0.21,0.39,0.18,0.62c-1.96,2.66-4.75,4.4-7.24,6.47
	c-0.46,0.39-1.04,0.65-1.68,0.32c0.02-3.72,0.03-7.44,0.05-11.16C313.39,249.11,316.42,246.87,319.08,244.2z"/>
<path class="st0" d="M328.81,236.38c-3.22,2.61-6.44,5.22-9.66,7.84c-0.03-3.28-0.02-6.57-0.09-9.85c-0.04-1.82,0.76-2.67,2.6-2.64
	c2.37,0.04,4.74-0.01,7.1-0.02C328.78,233.27,328.8,234.83,328.81,236.38z"/>
<path class="st0" d="M319.04,255.85c0.04-0.2,0.09-0.4,0.13-0.6c3.2-2.59,6.41-5.18,9.61-7.77c0,2.43-0.01,4.86-0.01,7.29
	c-1.83,3.22-4.97,5.03-7.79,7.17c-0.74,0.56-1.69,0.77-2.42-0.22C317.92,259.7,317.86,257.72,319.04,255.85z"/>
<path class="st33" d="M319.04,255.85c0.04,2.11,0.08,4.23,0.13,6.34c0.02,0.11,0.03,0.22,0.05,0.32c0.05,0.68-0.35,1.16-0.78,1.57
	c-1.85,1.79-3.85,3.41-5.9,4.97c-0.58,0.44-1.25,0.91-2.07,0.44c-0.01-2.27-0.02-4.55-0.03-6.82
	C313.3,260.39,315.85,257.71,319.04,255.85z"/>
<path class="st36" d="M347.25,231.81c-4.31-0.02-8.61-0.04-12.92-0.07c-0.21-0.59,0.07-1.08,0.47-1.42c2.2-1.82,4.11-4.05,6.93-5.01
	c1.48-0.49,3.04,0.05,4.53-0.36c0.89,0.32,1.5,0.94,1.83,1.82c-0.44,1.61,0.15,3.29-0.33,4.9
	C347.59,231.73,347.42,231.77,347.25,231.81z"/>
<path class="st55" d="M319.17,262.19c2.59-2.06,5.18-4.11,7.76-6.19c0.58-0.47,1.05-1.09,1.85-1.22c0,1.87,0,3.74,0.01,5.61
	c-3.21,2.59-6.41,5.18-9.61,7.78c-1.41-1.06-1.05-2.52-0.78-3.88c0.14-0.71,0.46-1.41,0.71-2.11L319.17,262.19z"/>
<path class="st36" d="M319.1,262.17c0.02,2,0.05,3.99,0.07,5.99c-0.04,0.2-0.09,0.4-0.13,0.6c-3.17,1.89-5.68,4.6-8.59,6.8
	c0.01-2.02,0.01-4.05,0.02-6.07C313.45,267.18,316.48,264.91,319.1,262.17z"/>
<path class="st33" d="M341.7,225.79c-2.45,1.98-4.91,3.97-7.36,5.95c-0.15,0.02-0.29,0.05-0.44,0.11c-1.23,0.57-2.48,1.3-3.64-0.14
	c0-2.12,0-4.23-0.01-6.35c3.65-0.55,7.33-0.14,10.99-0.21C341.59,225.14,341.75,225.43,341.7,225.79z"/>
<path class="st56" d="M311.7,305.55c1.84-0.02,3.67-0.06,5.51-0.07c3.19-0.01,3.19-0.01,3.32-3.24c0.69,1.05,0.37,2.22,0.41,3.35
	c0.02,0.7-0.31,1.2-1.07,1.21c-2.37,0.02-4.74,0.02-7.11,0C311.99,306.8,311.8,306.19,311.7,305.55z"/>
<path class="st30" d="M312.5,313.35c-1.19,0.08-2.11,0.01-2.13-1.6c-0.02-1.57,0.82-1.71,2.03-1.68c1.14,0.02,2.12-0.02,2.11,1.61
	C314.51,313.2,313.72,313.48,312.5,313.35z"/>
<path class="st57" d="M341.7,225.79c-1.85-1.02-3.85-0.34-5.77-0.46c-1.88-0.11-3.78,0.01-5.67,0.03c0.26-0.7,0.87-0.51,1.36-0.5
	c4.88,0.02,9.76,0.06,14.64,0.1C344.84,225.8,343.11,224.9,341.7,225.79z"/>
<path class="st0" d="M330.26,231.71c1.21,0.05,2.42,0.09,3.64,0.14c-0.94,1.38-2.28,2.28-3.67,3.13
	C330.24,233.89,330.25,232.8,330.26,231.71z"/>
<path class="st58" d="M347.77,231.69c0.06-1.64-0.43-3.31,0.33-4.9c0,1.65,0.01,3.3,0.01,4.95
	C347.99,231.73,347.87,231.72,347.77,231.69z"/>
<path class="st59" d="M591.35,240.06c0,0.31,0,0.63,0.01,0.94c-0.7,0.8-1.66,0.68-2.57,0.68c-7.52,0-15.04,0.01-22.56-0.01
	c-0.89,0-1.88,0.23-2.53-0.7c-0.27-0.44-0.54-0.89-0.82-1.33c-0.37-0.25-0.29-0.63-0.29-0.99c0.35-0.64,0.19-1.51,0.93-1.97
	c0.28,0.01,0.53,0.11,0.74,0.3c0.73,0.8,1.7,0.55,2.59,0.55c7.24,0.02,14.49,0.01,21.73,0.02c0.97,0,2.01-0.21,2.77,0.68
	c0,0.31,0,0.62-0.01,0.93c-0.79,0.68-1.75,0.44-2.65,0.44c-6.67,0.02-13.33,0.01-20,0.01c6.66,0,13.32-0.01,19.99,0.01
	C589.59,239.63,590.55,239.39,591.35,240.06z"/>
<path class="st59" d="M591.35,274.6c0,0.31,0,0.63,0.01,0.94c-0.7,0.8-1.66,0.68-2.57,0.68c-7.52,0-15.04,0.01-22.56-0.01
	c-0.89,0-1.88,0.23-2.53-0.7c-0.67-1.32-0.37-2.73-0.41-4.11c0.28-0.15,0.54-0.14,0.81,0.03c0.78,0.86,1.82,0.64,2.79,0.64
	c7.23,0.01,14.47,0,21.7,0.01c0.97,0,2.01-0.2,2.77,0.68c0,0.31,0,0.62-0.01,0.93c-0.79,0.68-1.75,0.44-2.65,0.44
	c-6.67,0.02-13.34,0.01-20,0.01c6.66,0,13.33-0.01,19.99,0.01C589.59,274.17,590.55,273.92,591.35,274.6z"/>
<path class="st59" d="M563.7,252.49c-0.67-1.32-0.37-2.73-0.41-4.11c0.28-0.15,0.54-0.14,0.81,0.03c0.78,0.86,1.82,0.64,2.79,0.64
	c7.23,0.01,14.47,0,21.7,0.01c0.97,0,2.01-0.2,2.77,0.68c0,0.31,0,0.62-0.01,0.93c-0.79,0.68-1.75,0.44-2.65,0.44
	c-6.67,0.02-13.34,0.01-20,0.01c6.66,0,13.33-0.01,19.99,0.01c0.9,0,1.86-0.24,2.65,0.44c0,0.31,0,0.63,0.01,0.94
	c-0.7,0.8-1.66,0.68-2.57,0.68c-7.52,0-15.04,0.01-22.56-0.01C565.34,253.19,564.35,253.42,563.7,252.49z"/>
<path class="st59" d="M591.36,261.25c0,0.31,0,0.62-0.01,0.93c-0.79,0.68-1.75,0.44-2.65,0.44c-6.67,0.02-13.34,0.01-20,0.01
	c6.66,0,13.33-0.01,19.99,0.01c0.9,0,1.86-0.24,2.65,0.44c0,0.31,0,0.63,0.01,0.94c-0.7,0.8-1.66,0.68-2.57,0.68
	c-7.52,0-15.04,0.01-22.56-0.01c-0.89,0-1.88,0.23-2.53-0.7c-0.67-1.32-0.37-2.73-0.41-4.11c0.28-0.15,0.54-0.14,0.81,0.03
	c0.78,0.86,1.82,0.64,2.79,0.64c7.23,0.01,14.47,0,21.7,0.01C589.56,260.57,590.6,260.37,591.36,261.25z"/>
<path class="st60" d="M577.42,282.88c3.91,0,7.82-0.02,11.73,0.02c0.77,0.01,1.97-0.35,2.05,0.84c0.08,1.29-1.16,0.96-1.91,0.96
	c-7.9,0.03-15.79,0.02-23.69,0.02c-0.23,0-0.46,0-0.69-0.02c-0.62-0.06-1.35-0.11-1.4-0.88c-0.06-1.06,0.85-0.91,1.49-0.92
	C569.13,282.87,573.28,282.88,577.42,282.88z"/>
<path class="st3" d="M563.35,232.35c-0.09-0.68-0.03-1.29,0.82-1.43c-0.24,1.9,0.75,2.27,2.44,2.26c7.49-0.07,14.97-0.04,22.46-0.02
	c1,0,2.31-0.36,2.3,1.38c-0.52,0.53-1.17,0.68-1.88,0.68c-8.23,0-16.46,0.08-24.69-0.04c-0.23,0-0.45-0.09-0.67-0.15
	C562.93,234.42,563.84,233.18,563.35,232.35z"/>
<path class="st3" d="M562.87,235.54c-0.08-0.54-0.03-1.06,0.33-1.5c0.36,0.42,0.71,0.87,1.37,0.74c8.11,0,16.22-0.01,24.32,0.01
	c0.82,0,1.68-0.24,2.46,0.24c0,0.45,0,0.9,0,1.35c-0.57,0.62-1.33,0.69-2.1,0.69c-7.93,0.01-15.86,0.02-23.8-0.01
	c-0.54,0-1.07-0.06-1.55-0.31C563.2,236.66,563.05,236.09,562.87,235.54z"/>
<path class="st60" d="M563.7,252.49c9.22,0.01,18.43,0.02,27.65,0.03c0,0.45,0,0.91,0.01,1.36c-0.71,0.76-1.66,0.69-2.57,0.7
	c-7.5,0.01-14.99,0.01-22.49,0c-0.91,0-1.86,0.08-2.59-0.66C563.25,253.44,563.25,252.97,563.7,252.49z"/>
<path class="st3" d="M563.32,255.67c-0.01-0.49-0.02-0.99,0.4-1.36c1.89-0.44,3.8-0.17,5.7-0.18c6.57-0.04,13.14-0.02,19.71-0.01
	c0.75,0,1.53-0.2,2.24,0.23c0,0.45,0,0.91,0,1.36c-0.79,0.82-1.82,0.69-2.8,0.69c-7.49,0.01-14.98,0.01-22.47,0
	C565.11,256.41,564.07,256.54,563.32,255.67z"/>
<path class="st3" d="M591.37,281.07c0.06,1.15-0.63,1.41-1.6,1.41c-8.26-0.01-16.53-0.01-24.79,0c-0.95,0-1.69-0.18-1.66-1.35
	c0.68-0.81,1.63-0.75,2.54-0.75c7.65-0.01,15.29-0.01,22.94,0C589.71,280.38,590.65,280.31,591.37,281.07z"/>
<path class="st3" d="M591.36,256.2c0,0.46,0,0.91,0.01,1.37c-0.79,0.81-1.82,0.68-2.81,0.68c-7.49,0.01-14.98,0.01-22.48,0
	c-0.98,0-2.02,0.13-2.78-0.74c0-0.42,0-0.84,0.01-1.27c0.37-0.37,0.85-0.28,1.3-0.28c8.48-0.01,16.95,0,25.43,0
	C590.49,255.97,590.96,255.89,591.36,256.2z"/>
<path class="st60" d="M563.7,240.97c9.22,0.01,18.43,0.02,27.65,0.03c0,0.45,0,0.91,0.01,1.36c-0.71,0.76-1.66,0.69-2.57,0.7
	c-7.5,0.01-14.99,0.01-22.49,0c-0.91,0-1.86,0.08-2.59-0.66C563.25,241.93,563.25,241.45,563.7,240.97z"/>
<path class="st3" d="M563.31,280.54c-0.03-1.17,0.72-1.35,1.66-1.34c8.26,0.01,16.52,0.01,24.78,0c0.97,0,1.67,0.24,1.61,1.4
	c-0.63,0.4-1.34,0.22-2.01,0.22c-8.02,0.01-16.04,0.01-24.06,0C564.63,280.82,563.91,281.04,563.31,280.54z"/>
<path class="st3" d="M591.36,277.39c0.07,1.17-0.65,1.39-1.61,1.39c-8.26-0.01-16.52-0.01-24.78,0c-0.94,0-1.7-0.16-1.65-1.34
	c0.68-0.81,1.63-0.74,2.54-0.74c7.64-0.01,15.28-0.01,22.93,0C589.71,276.69,590.65,276.63,591.36,277.39z"/>
<path class="st60" d="M563.7,275.51c9.22,0.01,18.43,0.02,27.65,0.03c0,0.45,0,0.91,0.01,1.36c-0.4,0.31-0.87,0.24-1.32,0.24
	c-8.47,0-16.94,0-25.42,0c-0.45,0-0.93,0.09-1.3-0.28C563.31,276.37,563.31,275.89,563.7,275.51z"/>
<path class="st3" d="M563.32,259.37c0-0.42,0-0.85,0-1.27c0.36-0.39,0.85-0.29,1.29-0.29c8.48-0.01,16.95,0,25.43,0
	c0.45,0,0.92-0.08,1.32,0.25c0,0.45,0,0.9,0,1.35c-0.79,0.82-1.82,0.69-2.8,0.69c-7.4,0.01-14.8,0.01-22.2,0.01
	C565.28,260.11,564.21,260.12,563.32,259.37z"/>
<path class="st3" d="M591.36,242.85c0,0.45,0,0.91,0,1.36c-0.71,0.76-1.66,0.69-2.57,0.69c-7.49,0.01-14.99,0.01-22.48,0
	c-0.91,0-1.86,0.08-2.59-0.65c-0.47-0.48-0.47-0.96,0-1.45c1.89-0.44,3.8-0.17,5.7-0.18c6.57-0.04,13.14-0.02,19.71-0.01
	C589.87,242.62,590.65,242.41,591.36,242.85z"/>
<path class="st3" d="M591.36,269.57c0,0.45,0,0.9,0,1.35c-0.79,0.82-1.81,0.69-2.8,0.69c-7.4,0.01-14.8,0.01-22.21,0.01
	c-1.08,0-2.15,0.01-3.04-0.74c0-0.42,0-0.85,0-1.27c0.68-0.8,1.63-0.75,2.54-0.75c7.64-0.01,15.29-0.01,22.93,0
	C589.71,268.87,590.65,268.8,591.36,269.57z"/>
<path class="st3" d="M563.31,246c-0.01-0.5-0.02-0.99,0.41-1.36c1.89-0.44,3.8-0.17,5.7-0.18c6.57-0.04,13.14-0.02,19.71-0.01
	c0.75,0,1.53-0.21,2.24,0.23c0,0.46,0,0.91,0.01,1.37c-0.79,0.81-1.82,0.68-2.81,0.68c-7.49,0.01-14.98,0.01-22.48,0
	C565.1,246.74,564.07,246.87,563.31,246z"/>
<path class="st3" d="M591.36,267.72c0,0.46,0,0.91,0.01,1.37c-0.63,0.4-1.34,0.22-2.01,0.22c-8.02,0.01-16.04,0.01-24.06,0
	c-0.66,0-1.38,0.22-1.99-0.28c0-0.42,0-0.84,0.01-1.27c0.69-0.8,1.63-0.74,2.55-0.74c7.64-0.01,15.29-0.01,22.93,0
	C589.71,267.02,590.65,266.96,591.36,267.72z"/>
<path class="st3" d="M591.36,246.54c0,0.45,0,0.9,0,1.35c-0.79,0.82-1.82,0.69-2.8,0.69c-7.4,0.01-14.8,0.01-22.2,0.01
	c-1.08,0-2.15,0.01-3.04-0.74c0-0.42,0-0.85,0-1.27c0.36-0.39,0.85-0.29,1.29-0.29c8.48-0.01,16.95,0,25.43,0
	C590.49,246.3,590.96,246.22,591.36,246.54z"/>
<path class="st3" d="M591.36,265.87c0,0.45,0,0.91,0,1.36c-0.48,0.35-1.03,0.23-1.55,0.23c-8.32,0.01-16.65,0.01-24.97,0
	c-0.52,0-1.08,0.15-1.53-0.28c-0.01-0.49-0.02-0.99,0.4-1.36c0.81-0.79,1.84-0.65,2.82-0.65c7.34-0.01,14.68-0.01,22.03,0
	C589.54,265.18,590.57,265.05,591.36,265.87z"/>
<path class="st60" d="M563.7,264c9.22,0.01,18.43,0.02,27.65,0.03c0,0.45,0,0.91,0.01,1.36c-0.4,0.31-0.87,0.24-1.32,0.24
	c-8.4,0-16.81,0-25.21,0c-0.38,0-0.76,0-1.11-0.2C563.25,264.96,563.25,264.48,563.7,264z"/>
<path class="st60" d="M591.36,238.23c-8.42,0-16.84,0.01-25.26-0.01c-1,0-2.3,0.36-2.35-1.36c0.4-0.31,0.87-0.24,1.32-0.24
	c8.32,0,16.65,0,24.97,0c0.45,0,0.92-0.07,1.32,0.24C591.36,237.32,591.36,237.77,591.36,238.23z"/>
<path class="st60" d="M591.36,249.74c-8.42,0-16.84,0.01-25.26-0.01c-1,0-2.3,0.37-2.35-1.35c0.26-0.19,0.54-0.25,0.86-0.25
	c8.63,0,17.26,0,25.88,0c0.31,0,0.6,0.06,0.86,0.24C591.36,248.83,591.36,249.29,591.36,249.74z"/>
<path class="st60" d="M591.36,272.77c-8.42,0-16.84,0.01-25.26-0.01c-1,0-2.3,0.37-2.35-1.35c0.26-0.19,0.54-0.25,0.86-0.25
	c8.63,0,17.26,0,25.88,0c0.31,0,0.6,0.06,0.86,0.24C591.36,271.86,591.36,272.31,591.36,272.77z"/>
<path class="st60" d="M591.36,261.25c-8.42,0-16.84,0.01-25.26-0.01c-1,0-2.3,0.37-2.35-1.35c0.26-0.19,0.54-0.25,0.86-0.25
	c8.63,0,17.26,0,25.88,0c0.31,0,0.6,0.06,0.86,0.24C591.36,260.34,591.36,260.8,591.36,261.25z"/>
<path class="st3" d="M591.35,263.09c-9.04,0-18.08,0-27.13,0c0-0.3,0-0.6,0-0.9c9.04,0,18.09,0,27.13,0
	C591.35,262.49,591.35,262.79,591.35,263.09z"/>
<path class="st3" d="M591.35,240.06c-9.04,0-18.08,0-27.12,0c0-0.3,0-0.6,0-0.9c9.04,0,18.09,0,27.13,0
	C591.35,239.46,591.35,239.76,591.35,240.06z"/>
<path class="st3" d="M591.35,274.6c-9.04,0-18.08,0-27.13,0c0-0.3,0-0.6,0-0.9c9.04,0,18.09,0,27.13,0
	C591.35,274,591.35,274.3,591.35,274.6z"/>
<path class="st3" d="M591.35,251.57c-9.04,0-18.08,0-27.13,0c0-0.3,0-0.6,0-0.9c9.04,0,18.09,0,27.13,0
	C591.35,250.97,591.35,251.27,591.35,251.57z"/>
<path class="st61" d="M591.36,246.54c-9.35,0.01-18.69,0.03-28.04,0.05c0-0.19-0.01-0.39-0.01-0.58c9.35,0.02,18.71,0.04,28.06,0.06
	C591.37,246.22,591.36,246.38,591.36,246.54z"/>
<path class="st62" d="M591.36,271.4c-9.2,0-18.4,0-27.61,0.01c0,0-0.23-0.01-0.23-0.01s-0.23,0-0.23,0
	c0.01-0.17,0.01-0.35,0.02-0.52c9.35,0.01,18.69,0.03,28.04,0.04C591.36,271.08,591.36,271.24,591.36,271.4z"/>
<path class="st61" d="M563.31,269.03c9.35,0.02,18.71,0.04,28.06,0.06c0,0.16-0.01,0.32-0.01,0.48c-9.35,0.02-18.69,0.03-28.04,0.05
	C563.32,269.42,563.31,269.22,563.31,269.03z"/>
<path class="st62" d="M591.36,236.86c-9.2,0-18.41,0-27.61,0c-0.13-0.01-0.26-0.02-0.39-0.02c-0.16-0.09-0.22-0.18-0.16-0.28
	c0.06-0.09,0.11-0.14,0.17-0.14c9.33-0.02,18.67-0.03,28-0.05C591.36,236.54,591.36,236.7,591.36,236.86z"/>
<path class="st62" d="M591.36,259.89c-9.2,0-18.4,0-27.61,0.01c0,0-0.23-0.01-0.23-0.01s-0.23,0-0.23,0
	c0.01-0.17,0.01-0.35,0.02-0.52c9.35,0.01,18.69,0.03,28.04,0.04C591.36,259.57,591.36,259.73,591.36,259.89z"/>
<path class="st63" d="M563.32,267.19c9.35,0.02,18.7,0.03,28.05,0.05c0,0.16,0,0.32,0,0.48c-9.35,0.02-18.7,0.03-28.05,0.05
	C563.32,267.57,563.32,267.38,563.32,267.19z"/>
<path class="st63" d="M591.36,256.2c-9.35,0.02-18.7,0.03-28.05,0.05c0-0.19,0-0.38,0-0.58c9.35,0.02,18.7,0.03,28.05,0.05
	C591.36,255.88,591.36,256.04,591.36,256.2z"/>
<path class="st61" d="M563.31,280.54c9.35,0.02,18.71,0.04,28.06,0.06c0,0.16,0,0.31,0,0.47c-9.35,0.02-18.7,0.04-28.05,0.06
	C563.32,280.93,563.31,280.74,563.31,280.54z"/>
<path class="st61" d="M591.36,258.05c-9.35,0.01-18.69,0.03-28.04,0.05c0-0.19-0.01-0.39-0.01-0.58c9.35,0.02,18.71,0.04,28.06,0.06
	C591.37,257.73,591.36,257.89,591.36,258.05z"/>
<path class="st62" d="M591.36,248.38c-9.2,0-18.4,0-27.61,0.01c0,0-0.23-0.01-0.23-0.01s-0.23,0-0.23,0
	c0.01-0.17,0.01-0.35,0.02-0.52c9.35,0.01,18.69,0.03,28.04,0.04C591.36,248.05,591.36,248.22,591.36,248.38z"/>
<path class="st64" d="M563.33,276.86c9.34,0.02,18.69,0.03,28.03,0.05c0,0.16,0,0.32,0,0.48c-9.35,0.02-18.69,0.03-28.04,0.05
	C563.32,277.24,563.32,277.05,563.33,276.86z"/>
<path class="st64" d="M591.36,254.36c-9.22-0.01-18.43-0.03-27.65-0.04c0-0.13,0.01-0.27,0-0.4c9.21-0.01,18.43-0.03,27.64-0.04
	C591.36,254.04,591.36,254.2,591.36,254.36z"/>
<path class="st63" d="M591.36,244.69c-9.21-0.01-18.43-0.03-27.64-0.04c0-0.13,0-0.26,0-0.4c9.22-0.01,18.43-0.03,27.65-0.04
	C591.36,244.37,591.36,244.53,591.36,244.69z"/>
<path class="st64" d="M591.36,242.85c-9.22-0.01-18.43-0.03-27.65-0.04c0-0.13,0.01-0.27,0-0.4c9.21-0.01,18.43-0.03,27.64-0.04
	C591.36,242.53,591.36,242.69,591.36,242.85z"/>
<path class="st64" d="M563.72,265.43c9.21-0.01,18.43-0.03,27.64-0.04c0,0.16,0,0.32,0,0.48c-9.22-0.01-18.43-0.03-27.65-0.04
	C563.72,265.7,563.72,265.56,563.72,265.43z"/>
<path class="st61" d="M591.36,235.03c-9.21-0.01-18.42-0.02-27.63-0.02c-0.14-0.11-0.18-0.21-0.12-0.31
	c0.05-0.09,0.11-0.14,0.16-0.14c9.2-0.01,18.41-0.01,27.61-0.02C591.36,234.71,591.36,234.87,591.36,235.03z"/>
<path class="st52" d="M564.27,226.73c0.29-2.12,0.57-4.24,0.86-6.36c0.08-0.62,0.19-1.23,0.9-1.46c-0.65,2.57-0.41,5.32-1.46,7.82
	C564.47,226.73,564.37,226.73,564.27,226.73z"/>
<path class="st40" d="M559.57,261.19c-0.59-1.89,0.1-3.66,0.5-5.46c0.12-0.31,0.24-0.31,0.36,0
	C560.14,257.55,559.85,259.37,559.57,261.19z"/>
<path class="st40" d="M560.95,251.99c-0.43-1.93-0.38-3.78,0.92-5.42C561.57,248.38,561.26,250.18,560.95,251.99z"/>
<path class="st40" d="M556.34,282.84c-0.43-1.93-0.37-3.78,0.92-5.42C556.96,279.23,556.65,281.04,556.34,282.84z"/>
<path class="st40" d="M558.65,267.19c-0.27-1.91-0.31-3.78,0.92-5.43C559.27,263.57,558.96,265.38,558.65,267.19z"/>
<path class="st47" d="M560.82,289.64c-1.95,0.2-3.89,0.23-5.83-0.04c-0.12-0.04-0.24-0.07-0.36-0.11c0.09-0.08,0.19-0.17,0.28-0.25
	c0.02-0.12,0.06-0.24,0.11-0.35c0.12-0.27,0.24-0.27,0.35,0C557.06,290.11,559.08,288.87,560.82,289.64z"/>
<path class="st65" d="M557.21,274.62c0.18-1.26-0.2-2.67,0.98-3.66c-0.17,1.21-0.34,2.41-0.5,3.62
	C557.54,274.76,557.38,274.76,557.21,274.62z"/>
<path class="st40" d="M564.27,226.73c0.1,0,0.2,0,0.3,0c0.31,1.25-0.2,2.42-0.4,3.61C563.25,229.11,564.4,227.94,564.27,226.73z"/>
<path class="st65" d="M555.37,288.89c-0.12,0-0.24,0-0.35,0c0.16-1.22,0.32-2.44,0.48-3.66c0.15-0.17,0.31-0.18,0.48-0.04
	C556.03,286.47,555.69,287.68,555.37,288.89z"/>
<path class="st40" d="M562.68,238.69c0.07,0.32,0.14,0.63,0.21,0.95c-0.2,0.91-0.41,1.82-0.61,2.73c-0.1,0-0.2,0-0.3,0
	c0.18-1.23,0.36-2.45,0.54-3.68C562.5,238.69,562.68,238.69,562.68,238.69z"/>
<path class="st66" d="M558.21,270.1c-0.63-0.83-0.71-1.53,0.46-1.94C558.67,268.84,558.69,269.53,558.21,270.1z"/>
<path class="st65" d="M560.43,255.73c-0.12,0-0.24,0-0.36,0c0.02-1.14-0.22-2.34,0.88-3.18
	C560.78,253.61,560.6,254.67,560.43,255.73z"/>
<path class="st67" d="M561.97,242.38c0.1,0,0.2,0,0.3,0c0.31,1.11-0.27,2.11-0.4,3.17C561.05,244.46,562.1,243.44,561.97,242.38z"/>
<path class="st68" d="M557.21,274.62c0.16-0.01,0.32-0.03,0.48-0.04c0.12,0.7-0.11,1.33-0.4,1.95
	C556.61,275.92,556.74,275.28,557.21,274.62z"/>
<path class="st68" d="M555.98,285.2c-0.16,0.01-0.32,0.03-0.48,0.04c-0.07-0.7,0-1.33,0.88-1.46
	C556.37,284.28,556.37,284.79,555.98,285.2z"/>
<path class="st69" d="M508.01,368.09c0.15,0.16,0.31,0.32,0.46,0.48c0.26,4.6-0.22,8.94-3.25,12.78c-4.89,6.2-14.46,7.64-20.8,2.96
	c-4.29-3.17-6.52-7.37-6.38-12.76c0.02-0.99,0-1.99,0-2.98c0.15-0.16,0.31-0.32,0.46-0.48c0.62-0.16,1.2-0.15,1.7,0.33
	c0.16,0.18,0.28,0.38,0.36,0.61c0.48,1.1,0.18,2.27,0.23,3.4c0.3,6.68,5.7,11.84,12.45,11.84c6.78,0.01,12.15-5.13,12.43-11.84
	c0.06-1.35-0.31-2.78,0.63-4C506.8,367.95,507.38,367.92,508.01,368.09z"/>
<path class="st70" d="M479.88,368.56c-0.51,0-1-0.05-1.37-0.47c1.07-6.22,7.76-11.73,14.97-11.64c6.62,0.08,13.3,5.27,14.53,11.65
	c-0.39,0.42-0.91,0.47-1.44,0.49c-0.21,0.11-0.42,0.12-0.63,0c-0.67-0.66-0.95-1.55-1.39-2.34c-2.43-4.44-6.19-7.04-11.23-7.07
	c-4.93-0.03-8.7,2.39-11.19,6.74C481.55,366.9,481.38,368.31,479.88,368.56z"/>
<path class="st71" d="M294.72,368.55c-0.58-0.01-1.17-0.01-1.75-0.02c-0.11-0.03-0.21-0.06-0.32-0.08c-1.5-0.99-1.75-2.81-2.75-4.14
	c-5.5-7.28-16.66-6.58-21.15,1.36c-0.54,0.95-0.74,2.25-2.17,2.42c-0.54,0.33-1.13,0.49-1.76,0.46c1.28-7.47,8.99-12.37,15.16-12.06
	C287.2,356.86,292.71,361.05,294.72,368.55z"/>
<path class="st23" d="M292.97,368.53c1.44,7.99-3.12,15.2-10.48,16.57c-7.53,1.41-14.43-3.14-16.05-10.65
	c-0.42-1.96-0.57-3.95,0.25-5.88c2.38-1.61,4.85-1.32,7.35-0.35c0.7,0.74,0.72,1.59,0.55,2.55c-0.42,2.38,0.53,4.21,2.53,5.46
	c1.69,1.06,3.54,1.09,5.22,0.05c1.95-1.21,3.05-3.02,2.64-5.42c-0.17-0.96-0.22-1.81,0.47-2.59c2.51-1,5-1.38,7.4,0.31
	L292.97,368.53z"/>
<path class="st72" d="M292.83,368.59c-2.47,0.24-5.03-0.65-7.43,0.56c-0.63,0.1-1-0.34-1.41-0.69c-3.63-2.64-5.91-2.48-9.29,0.67
	c-0.21,0.08-0.42,0.08-0.63-0.01c-2.39-1.14-4.93-0.27-7.39-0.54c-0.04-0.16-0.08-0.32-0.12-0.48c2.01-5.58,5.76-9.08,11.8-9.81
	C285.04,357.48,291.34,361.97,292.83,368.59z"/>
<path class="st1" d="M337.4,362.12c-3.67,0-7.35-0.05-11.02,0.02c-1.53,0.03-2.15-0.43-2.19-2.07c-0.15-6.27-0.2-6.27,6.02-6.27
	c6.2,0,12.4,0.03,18.6-0.02c1.61-0.01,2.81,0.12,2.13,2.21c-0.05,0.14-0.01,0.3-0.02,0.46c-0.19,5.63-0.19,5.63-5.94,5.63
	c-2.53,0-5.05,0-7.58,0C337.4,362.09,337.4,362.1,337.4,362.12z"/>
<path class="st43" d="M551.23,289.59c-1.47-0.01-2.95-0.02-4.42-0.03c-0.97-0.59-0.77-1.57-0.8-2.45c-0.1-3.18,0.17-6.38-0.17-9.55
	c-0.06-0.23-0.12-0.46-0.19-0.69c-0.1-0.88-0.86-1.49-1.01-2.36c-0.06-0.24-0.12-0.49-0.31-0.64c0,0.03-0.18,0.06-0.18,0.09
	c-0.45,1.32-1.63,2.31-1.53,3.83c0.04,2.89,0.03,5.78,0,8.67c-0.01,0.9,0.06,1.84-0.54,2.63c-0.18,0.22-0.41,0.37-0.68,0.47
	c-1.88,0.16-2.08-1.12-2.14-2.5c-0.14-3.27,0.12-6.55-0.18-9.81c0-1.2-0.98-1.97-1.34-2.98c-0.76,0.49-0.47,1.49-1.05,2.04
	c-1.18,1.81-0.9,3.84-0.94,5.82c-0.03,1.61,0.04,3.22-0.05,4.83c-0.14,2.27-0.5,2.62-2.79,2.62c-7.74,0.01-15.49,0.01-23.23,0
	c-17.1,0-34.19,0.01-51.29-0.01c-0.32,0.01-0.59-0.09-0.83-0.3c-0.82-0.78-0.75-1.81-0.76-2.8c-0.04-15.1-0.04-30.19,0-45.29
	c0-1.08,0.02-2.17,0.97-2.94c0.03-2.34,0.02-4.68,0.11-7.02c0.02-0.7-0.39-1.52,0.39-2.09c1.45,1.16,0.95,2.81,1.01,4.28
	c0.12,3.47,0.36,3.78,3.88,3.78c27.89,0.02,55.78,0,83.67,0.03c1.56,0,3.26-0.43,4.59,0.88c0.66,0.86,0.59,1.87,0.59,2.86
	c0.01,15.29,0.01,30.58-0.01,45.87C551.97,287.8,552.2,288.87,551.23,289.59z"/>
<path class="st73" d="M551.24,238.23c-29.92,0-59.85,0-89.77,0c-3.2,0-3.2,0-3.2-3.12c0-1.99,0-3.99-0.01-5.98
	c0.69-0.04,1.38-0.1,2.06-0.1c30.32,0,60.63,0,90.95,0C551.67,232.1,551.72,235.16,551.24,238.23z"/>
<path class="st74" d="M455.04,229.03c1.03,3.03,0.15,6.16,0.48,9.23c0.6,0.53,0.93,1.19,0.93,2c0.01,5.31,0.3,10.63-0.17,15.94
	c-0.19,0.52-0.54,0.91-0.99,1.21c-9.26,8.31-19.12,15.92-28.66,23.9c-3.04,2.54-5.99,5.21-9.31,7.41c-0.58,0.38-1.13,0.78-1.85,0.86
	c-0.26,0-0.5,0-0.76,0c-1.98,0-3.95-0.04-5.92,0.02c-1.08,0.03-1.48-0.35-1.45-1.44c0.06-2.12,0.02-4.25,0.02-6.36
	c0-0.24,0-0.49,0-0.73c0.22-1.51,1.38-2.37,2.42-3.23c11.11-9.19,22.17-18.45,33.31-27.59c3.02-2.48,5.95-5.08,9.03-7.49
	c1.79-1.4,2.26-3.17,2.01-5.28c-0.21-2.02-0.1-4.04-0.09-6.06C454.05,230.47,454.27,229.64,455.04,229.03z"/>
<path class="st75" d="M407.57,229.09c10.65-0.02,21.29-0.05,31.94-0.06c0.6,0,1.24-0.09,1.71,0.46c0.06,0.48-0.07,0.95-0.42,1.25
	c-3.35,2.93-6.51,6.09-10.49,8.22c-0.26,0.01-0.52,0.01-0.78,0.01c-3.42,0.26-6.85,0.76-10.24-0.21c-0.93-2.23-2.62-2.75-4.95-2.67
	c-1.95,0.07-3.34,0.39-3.84,2.45c-0.89,0.6-1.8,0.7-2.73,0.09c-0.21-0.2-0.34-0.44-0.39-0.73
	C407.46,234.95,407.11,232.01,407.57,229.09z"/>
<path class="st76" d="M430.64,238.24c3.53-2.92,7.05-5.84,10.58-8.76c2.51-0.91,5.12-0.32,7.67-0.44c2.05-0.1,4.1-0.02,6.15-0.02
	c-0.02,3.07-0.04,6.14-0.06,9.22c-0.68,0.9-1.67,0.98-2.68,0.99c-6.34,0.05-12.67,0.06-19.01-0.01
	C432.31,239.21,431.27,239.26,430.64,238.24z"/>
<path class="st56" d="M554.5,238.22c0.03,17.01,0.06,34.02,0.08,51.03c-2.92,0.74-3.06,0.65-3.06-2.14c0-15.53,0-31.05,0.01-46.58
	c0-0.74-0.23-1.53,0.25-2.23C552.69,238.27,553.6,238.25,554.5,238.22z"/>
<path class="st3" d="M455.41,256.63c0.04-6.12,0.08-12.25,0.12-18.37c0.74-0.01,1.49-0.01,2.23-0.02c0.03,8.97,0.08,17.95,0.1,26.92
	c0.01,8.06,0,16.11-0.01,24.17c-2.7,0.49-3.31,0.14-3.32-2.39c-0.04-5.77-0.34-11.55,0.23-17.31c0.08-3.37,0.04-6.75,0.05-10.12
	C454.8,258.5,454.79,257.5,455.41,256.63z"/>
<path class="st45" d="M551.79,238.3c-0.01,16.25,0.02,32.49-0.07,48.74c-0.01,2.36,1.14,2.48,2.87,2.2c0.11,0.02,0.21,0.02,0.32,0
	c0.03,0.12,0.06,0.24,0.08,0.36c-1.25,0.19-2.51,0.19-3.76-0.02c0-17.12,0.01-34.24,0.01-51.36c0.01-3.07,0.02-6.13,0.03-9.2
	c1.04,2.19,0.26,4.51,0.48,6.75C551.83,236.61,551.78,237.46,551.79,238.3z"/>
<path class="st77" d="M407.57,229.09c0,3.04,0.01,6.08,0.01,9.12c-0.14,0.17-0.28,0.16-0.42,0c0,0-0.09,0.05-0.09,0.05
	c0.02-2.35,0.01-4.7,0.06-7.04C407.16,230.49,406.87,229.68,407.57,229.09z"/>
<path class="st40" d="M562.68,238.69c0,0-0.17,0-0.17,0c0.12-1.05,0.24-2.1,0.37-3.15c0.16,0.29,0.33,0.59,0.49,0.88
	c-0.03,0.14-0.03,0.27,0,0.41C563.26,237.5,563.12,238.15,562.68,238.69z"/>
<path class="st78" d="M563.76,234.57c-0.04,0.14-0.06,0.29-0.04,0.44c-0.17-0.32-0.35-0.64-0.52-0.97c0.05-0.56,0.1-1.12,0.15-1.69
	C563.9,233.02,563.69,233.82,563.76,234.57z"/>
<path class="st79" d="M383.64,259.42c-3.99-0.89-7.98-0.01-11.98,0l0,0C375.65,258.57,379.64,257.66,383.64,259.42L383.64,259.42z"
	/>
<path class="st79" d="M378.57,251.59c-2.62,1.02-5.33,1.09-8.09,0.83c-0.01-0.61,0.46-0.69,0.78-0.62c2.07,0.44,4.09,0.35,6.06-0.47
	C377.77,251.13,378.21,251.23,378.57,251.59L378.57,251.59z"/>
<path class="st80" d="M373.51,279.67c2.35-0.05,4.52,1.21,6.9,0.92l-0.01,0.01c-2.69,1.58-4.93-0.44-7.37-0.92
	C373.2,279.46,373.35,279.47,373.51,279.67z"/>
<path class="st81" d="M378.57,272.77c2.35-0.68,4.63,0.13,6.94,0.25C383.17,273.43,380.87,273.08,378.57,272.77L378.57,272.77z"/>
<path class="st82" d="M376.27,266.32c1.63-0.75,3.2-0.93,4.61,0.46l0,0c-0.94-0.18-1.86-0.7-2.79,0.21
	C377.14,267.93,377.05,266.09,376.27,266.32z"/>
<path class="st82" d="M371.67,267.16c-1.2-0.06-2.64,0.13-2.3-2.09C369.96,266.18,371.01,266.39,371.67,267.16z"/>
<path class="st79" d="M373.51,279.67c-0.16,0-0.31,0-0.47,0c-0.96-0.7-1.86,0.17-3.03,0.3C371.82,278.5,371.94,278.49,373.51,279.67
	z"/>
<path class="st80" d="M380.41,280.6c1.07,0.46,2.04-0.19,3.08-0.14C382.5,280.95,381.58,282.26,380.41,280.6
	C380.41,280.6,380.41,280.6,380.41,280.6z"/>
<path class="st79" d="M380.87,266.78c0.07-0.01,0.15-0.04,0.22-0.04c0.71,0.07,1.17-1.15,1.98-0.39c0.11,0.11,0.06,0.39,0.08,0.59
	C382.39,266.97,381.59,267.52,380.87,266.78C380.87,266.79,380.87,266.78,380.87,266.78z"/>
<path class="st83" d="M389.38,252.79c0.77-1.17,1.5-1.4,2.69-0.78C391.16,252.27,390.44,252.48,389.38,252.79z"/>
<path class="st82" d="M376.52,266.36c-1.43,0.51-2.42,0.59-3.39-0.16C374.17,266.25,375.22,266.3,376.52,266.36z"/>
<path class="st82" d="M391.55,272.98c-0.51-0.28-1.2-0.21-1.17-1c0.01-0.13,0.36-0.37,0.51-0.34
	C391.56,271.77,391.55,272.33,391.55,272.98z"/>
<path class="st79" d="M381.33,252.05c1.11,0,2.22,0,3.33,0C383.54,252.41,382.42,252.83,381.33,252.05L381.33,252.05z"/>
<path class="st82" d="M381.33,246.98c-0.99-0.17-2.07,0.55-3.38-0.4C379.35,246.56,380.39,246.26,381.33,246.98L381.33,246.98z"/>
<path class="st84" d="M394.65,229.95c0.13,1.07,0.27,2.13,0.4,3.2c-0.12,0.33-0.25,0.33-0.38,0c-0.43-0.69-0.44-1.49-0.52-2.26
	C394,230.42,393.82,229.92,394.65,229.95z"/>
<path class="st85" d="M394.67,233.16c0.13,0.01,0.26,0,0.38,0c0.14,0.79,0.44,1.58,0.39,2.36c-0.07,1.14-0.43-0.03-0.66,0.01
	C394.74,234.74,394.71,233.95,394.67,233.16z"/>
<path class="st86" d="M376.19,247.7c-0.93,0.27-1.69,0.33-2.6-0.05C374.51,247.37,375.27,247.32,376.19,247.7z"/>
<path class="st86" d="M391.15,265.68c-0.43,0.13-0.7,0.25-0.98,0.29c-0.27,0.04-0.45-0.15-0.4-0.42c0.07-0.38,0.36-0.48,0.69-0.36
	C390.65,265.26,390.81,265.44,391.15,265.68z"/>
<path class="st79" d="M378.57,272.77c-0.42,0.66-0.94,1.16-1.88,1.11C377.09,273.01,377.86,272.95,378.57,272.77L378.57,272.77z"/>
<path class="st82" d="M371.66,259.42c-0.77,0.93-1.54,1.5-2.31,0l0.01-0.01C370.12,259.94,370.89,259.55,371.66,259.42
	C371.66,259.41,371.66,259.42,371.66,259.42z"/>
<path class="st87" d="M369.35,259.42c-0.7,0.11-1.41,0.22-2.42,0.38C367.85,258.87,368.56,258.77,369.35,259.42
	C369.36,259.41,369.35,259.42,369.35,259.42z"/>
<path class="st82" d="M392.13,246.67c-0.36,0.04-0.57,0.11-0.75,0.07c-0.24-0.05-0.7,0.02-0.47-0.46c0.05-0.11,0.41-0.15,0.6-0.1
	C391.7,246.23,391.84,246.43,392.13,246.67z"/>
<path class="st79" d="M378.57,251.58c0.93,0.08,1.93-0.25,2.76,0.46c0,0,0,0,0,0C380.4,251.97,379.4,252.31,378.57,251.58
	C378.57,251.59,378.57,251.58,378.57,251.58z"/>
<path class="st81" d="M383.63,259.42c0.64,0,1.28,0,2.46,0C384.89,259.98,384.26,259.96,383.63,259.42
	C383.64,259.42,383.63,259.42,383.63,259.42z"/>
<path class="st81" d="M368.35,272.98c-0.3,0.41-0.74,0.44-1.17,0.46c-0.01,0-0.09-0.3-0.04-0.35
	C367.5,272.8,367.9,272.65,368.35,272.98z"/>
<path class="st82" d="M372.58,273.23c-0.62,0.59-1.33,0.45-2.32,0.37C371.16,273.01,371.9,273.33,372.58,273.23L372.58,273.23z"/>
<path class="st88" d="M390.34,279.71c0.42,0.02,1.17-0.06,1.21,0.07c0.19,0.63-0.4,0.27-0.64,0.34c-0.18,0.05-0.4-0.07-0.61-0.11
	C390.32,279.91,390.33,279.81,390.34,279.71z"/>
<path class="st82" d="M370.7,247.61c-0.19,0.07-0.4,0.21-0.59,0.19c-0.3-0.03-0.29-0.26-0.07-0.4c0.17-0.11,0.4-0.13,0.61-0.19
	C370.66,247.32,370.68,247.44,370.7,247.61z"/>
<path class="st87" d="M390.69,258.46c-0.13,0.12-0.28,0.28-0.3,0.27c-0.17-0.11-0.39-0.23-0.43-0.4c-0.07-0.24,0.14-0.43,0.38-0.34
	C390.49,258.06,390.57,258.3,390.69,258.46z"/>
<path class="st82" d="M372.58,273.23c0.3-0.33,0.64-0.41,0.94-0.06c0.09,0.11,0.04,0.51-0.04,0.54
	C373.02,273.9,372.9,273.38,372.58,273.23C372.58,273.23,372.58,273.23,372.58,273.23z"/>
<path class="st8" d="M394.65,229.95c-0.17,0.32-0.33,0.63-0.5,0.95c-0.13-0.17-0.25-0.33-0.38-0.5c0.03-0.34,0.07-0.68,0.1-1.02
	c0.26-0.14,0.51-0.28,0.77-0.43C394.64,229.29,394.65,229.62,394.65,229.95z"/>
<path class="st82" d="M381.33,246.98c0.33,0.06,0.76-0.11,0.91,0.36c0.02,0.07-0.14,0.28-0.24,0.29
	C381.5,247.73,381.42,247.35,381.33,246.98C381.33,246.98,381.33,246.98,381.33,246.98z"/>
<path class="st89" d="M407.59,280.65c0,0.14,0,0.29,0,0.43c-0.12,0.25-0.25,0.26-0.41,0.03c0.01-7.87,0.02-15.74,0.03-23.61
	c0.33-0.03,0.6,0.07,0.81,0.32c0.68,0.85,0.56,1.89,0.56,2.86c0.05,5.43,0.01,10.86,0.03,16.29
	C408.62,278.31,408.38,279.54,407.59,280.65z"/>
<path class="st90" d="M407.53,257.5c-0.11,0-0.21,0-0.32,0c-0.02-6.43-0.03-12.86-0.05-19.29c0.14,0.01,0.28,0,0.42,0
	c0,0,0.01,0.05,0.01,0.05c0.52,0.47,0.93,1.01,0.93,1.76c-0.03,5.61,0.57,11.23-0.41,16.82
	C407.99,257.12,407.79,257.34,407.53,257.5z"/>
<path class="st90" d="M407.18,281.11c0.14-0.02,0.27-0.03,0.41-0.03c0,2.13,0.04,4.26-0.01,6.39c-0.03,1.37,0.53,1.92,1.89,1.89
	c1.98-0.04,3.95,0.02,5.93,0.04l0.01,0.19c-2.76,0.21-5.51,0.21-8.27,0c-0.02-0.09-0.05-0.18-0.09-0.27
	C407.09,286.58,407.14,283.84,407.18,281.11z"/>
<path class="st91" d="M415.41,289.59c0,0-0.01-0.19-0.01-0.19c0.15-0.02,0.31-0.04,0.46-0.07c1.21-0.75,2.54-0.99,3.96-0.96
	c1.99,0.05,4.01-0.18,5.98,0.06c3.28,0.4,5.7-0.97,8.07-3c6.03-5.2,12.32-10.09,18.46-15.16c0.71-0.59,1.48-1.11,2.48-1.05
	c0.24,0.06,0.45,0.18,0.62,0.36c0.02,5.88,0.09,11.76,0.02,17.64c-0.02,1.86,0.59,2.56,2.4,2.12c0.14,0.04,0.28,0.09,0.41,0.17
	c-0.05,0.09-0.09,0.17-0.14,0.26c-13.24-0.01-26.49-0.02-39.73-0.04C417.39,289.71,416.4,289.63,415.41,289.59z"/>
<path class="st92" d="M458.12,289.75c0.04-0.09,0.08-0.18,0.14-0.26c24.48-0.01,48.96-0.02,73.43-0.03c3.12,0,3.13-0.01,3.13-3.14
	c0-2.61,0.01-5.22,0-7.83c0-1.44,0.4-2.66,1.7-3.45c0.99-0.19,0.59-1.8,1.81-1.77c-0.08,1.3,1.3,1.96,1.39,3.18
	c-0.66,1.08-0.82,2.26-0.8,3.51c0.04,2.37,0.02,4.74,0,7.12c-0.01,1.02-0.1,1.99-0.98,2.69c-26.23,0.01-52.45,0.03-78.68,0.04
	C458.88,289.83,458.5,289.78,458.12,289.75z"/>
<path class="st93" d="M537.94,289.79c0.04-4.18,0.11-8.37,0.09-12.55c-0.01-1.72,0.76-1.31,1.68-0.76c0.97,1.22,0.42,2.64,0.47,3.96
	c0.09,2.43,0.03,4.87,0.03,7.31c0,0.87-0.05,1.75,1.21,1.71c0.26-0.03,0.34,0.09,0.25,0.33
	C540.43,289.79,539.18,289.79,537.94,289.79z"/>
<path class="st94" d="M541.67,289.78c-0.06-0.13-0.14-0.24-0.25-0.33c0.04-0.09,0.11-0.13,0.21-0.11c1.35-0.96,1.89-2.25,1.78-3.93
	c-0.1-1.51-0.1-3.04,0-4.55c0.11-1.67-0.43-2.96-1.76-3.95c0.44-1.45,1.78-2.5,1.87-4.11c1.01-0.07,0.93,0.86,1.27,1.39
	c0.05,0.37,0.08,0.73,0.19,1.09c0.08,0.25,0.17,0.49,0.26,0.74c0.49,4.37,0.41,8.73,0.05,13.1c-0.15,0.23-0.35,0.43-0.58,0.59
	C543.7,289.74,542.69,289.76,541.67,289.78z"/>
<path class="st88" d="M544.72,289.72c0-0.14,0.05-0.27,0.15-0.37c0.79-1.19,0.36-2.53,0.43-3.8c0.16-2.97-0.25-5.96,0.24-8.92
	c0.19-0.26,0.43-0.32,0.72-0.17l-0.04-0.03c0.43,4.43,0.34,8.86,0.04,13.29C545.74,289.71,545.23,289.71,544.72,289.72z"/>
<path class="st56" d="M546.26,289.71c-0.01-4.43-0.02-8.86-0.04-13.29c0.85,0.53,0.49,1.38,0.5,2.09c0.06,3.68,0.06,7.36,0.08,11.05
	C546.62,289.61,546.44,289.66,546.26,289.71z"/>
<path class="st23" d="M506.27,368.5c0.1,0.03,0.2,0.05,0.3,0.08c0.57,4.33,0.06,8.39-2.88,11.88c-3.98,4.71-10.49,6.23-16.02,3.71
	c-5.79-2.63-8.65-8.26-7.69-15.14c2.19-2.48,4.88-1.41,7.47-1.06c1.22,0.83,0.76,2,0.64,3.12c-0.27,2.46,1.03,4.72,3.16,5.54
	c2.25,0.87,4.93,0.05,6.35-1.86c0.97-1.3,0.74-2.76,0.72-4.19c-0.02-1-0.24-2.01,0.84-2.65C501.57,367.51,504,366.92,506.27,368.5z"
	/>
<path class="st72" d="M487.8,368.57c-2.61,0.2-5.26-0.47-7.83,0.45c-0.03-0.16-0.06-0.31-0.1-0.47c1.49-4.19,3.9-7.56,8.16-9.34
	c7.66-3.2,16.73,1.41,18.22,9.28c-2.52,0.03-5.05,0.06-7.57,0.09c-0.17,0.15-0.37,0.23-0.59,0.25c-0.41-0.03-0.68-0.28-0.98-0.54
	c-2.6-2.29-4.8-2.37-7.59-0.3c-0.37,0.27-0.67,0.63-1.13,0.76C488.18,368.78,487.98,368.71,487.8,368.57z"/>
<path class="st95" d="M274.08,369.12c0.13-0.03,0.25-0.06,0.38-0.1c0.47-0.44,0.99-0.63,1.61-0.37c0.82,0.52,0.67,1.31,0.5,2.04
	c-0.41,1.72,0.24,3,1.61,3.91c1.02,0.68,2.21,0.66,3.22-0.03c1.37-0.93,2-2.23,1.53-3.94c-0.14-0.51-0.17-1.05,0.01-1.57
	c0.33-0.7,0.95-0.88,1.65-0.91c0.27,0.33,0.55,0.67,0.82,1c1.16,4.82-1.03,8.38-5.23,8.72
	C276.32,378.18,272.16,374.43,274.08,369.12z"/>
<path class="st82" d="M289.47,370.44c0.82,0.15,1.2,0.66,1.12,1.46c-0.07,0.7-0.51,1.15-1.22,1.12c-0.79-0.04-1.32-0.52-1.27-1.33
	C288.14,370.91,288.66,370.48,289.47,370.44z"/>
<path class="st88" d="M271.21,371.93c-0.16,0.75-0.6,1.23-1.4,1.12c-0.65-0.09-1.11-0.55-1.1-1.22c0.01-0.78,0.5-1.29,1.28-1.25
	C270.75,370.62,271.18,371.12,271.21,371.93z"/>
<path class="st82" d="M276.14,380.39c-0.18,0.78-0.68,1.16-1.47,1.04c-0.69-0.1-1.1-0.55-1.02-1.25c0.09-0.82,0.67-1.15,1.45-1.05
	C275.79,379.23,276.13,379.69,276.14,380.39z"/>
<path class="st82" d="M285.9,380.31c-0.14,0.78-0.6,1.2-1.4,1.13c-0.69-0.06-1.13-0.51-1.1-1.19c0.04-0.8,0.59-1.2,1.38-1.13
	C285.47,379.18,285.84,379.61,285.9,380.31z"/>
<path class="st96" d="M284.59,368.15c-0.16,0.78-0.76,0.86-1.4,0.88c-2.33-0.11-4.65-0.49-6.98-0.02c-0.58,0-1.17,0-1.75,0.01
	C275.57,365.1,282.49,364.43,284.59,368.15z"/>
<path class="st97" d="M284.61,362.1c0.75,0.05,1.23,0.44,1.22,1.15c-0.02,0.83-0.6,1.23-1.41,1.14c-0.69-0.08-1.14-0.51-1.06-1.24
	C283.43,362.41,283.94,362.11,284.61,362.1z"/>
<path class="st98" d="M275.99,363.38c-0.12,0.71-0.53,1.07-1.23,1.04c-0.7-0.04-1.14-0.44-1.13-1.13c0.02-0.82,0.57-1.2,1.35-1.13
	C275.68,362.22,275.99,362.7,275.99,363.38z"/>
<path class="st99" d="M541.65,276.92c2.07-0.31,2.92,0.48,2.76,2.66c-0.17,2.36-0.18,4.76,0,7.13c0.17,2.22-0.75,2.93-2.79,2.64
	C541.48,285.2,541.43,281.06,541.65,276.92z"/>
<path class="st100" d="M538.33,273.29c-0.51,0.68-0.41,1.99-1.81,1.77c0.31-1.13,0.62-2.26,0.95-3.46
	C538.24,272.1,538.33,272.67,538.33,273.29z"/>
<path class="st101" d="M544.33,274.17c-0.27-0.45-0.54-0.91-0.8-1.36c-0.06-0.57,0.18-0.98,0.72-1.41c0.2,0.68,0.37,1.24,0.55,1.81
	C544.82,273.62,544.79,273.99,544.33,274.17z"/>
<path class="st26" d="M546.26,276.45c-0.18,0.04-0.36,0.08-0.54,0.13c-0.75,0.12-0.82-0.66-1.26-0.96c-0.01-0.2-0.02-0.4-0.03-0.6
	c0.37-0.2-0.02-1.19,0.87-0.83C545.2,275.12,546.68,275.38,546.26,276.45z"/>
<path class="st69" d="M545.3,274.19c-0.29,0.28-0.58,0.55-0.87,0.83c-0.03-0.28-0.06-0.56-0.09-0.84c0.15-0.32,0.31-0.64,0.46-0.96
	C544.96,273.53,545.13,273.86,545.3,274.19z"/>
<path class="st102" d="M407.53,257.5c0.02-0.12,0.05-0.25,0.07-0.37c0.64-1.83,2.17-2.88,3.55-4.05c2.42-2.06,4.92-4.04,7.43-6
	c0.22-0.24,0.45-0.46,0.7-0.66c2.08-1.79,4.21-3.52,6.3-5.3c1.42-1.21,2.91-2.2,4.65-2.84c0.14-0.02,0.28-0.03,0.42-0.04
	c8.12,0,16.23,0,24.34,0c0.5,2.18-0.31,3.69-2.05,5.12c-13.06,10.72-26.05,21.53-39.08,32.29c-2.06,1.7-3.94,3.63-6.27,4.99
	C407.57,272.93,407.55,265.21,407.53,257.5z"/>
<path class="st102" d="M454.98,269.51c-7.59,6.16-15.19,12.3-22.75,18.51c-1.14,0.93-2.29,1.37-3.75,1.35
	c-4.2-0.06-8.41-0.03-12.61-0.03c2.77-3.2,6.31-5.52,9.52-8.21c9.67-8.09,19.45-16.04,29.19-24.05c0.35-0.02,0.65,0.14,0.65,0.47
	C455.13,261.53,455.6,265.53,454.98,269.51z"/>
<path class="st103" d="M454.98,269.51c0.02-3.5,0.04-6.99,0.05-10.49c0-0.68,0.06-1.38-0.46-1.94c0.28-0.15,0.56-0.29,0.84-0.44
	c0.01,4.31,0.01,8.63,0.02,12.94C455.28,269.55,455.13,269.53,454.98,269.51z"/>
<path class="st104" d="M419.2,247.49c-3.87,3.21-7.74,6.42-11.6,9.63c0-6.29,0-12.58,0-18.87c0.9-0.02,1.8-0.03,2.69-0.05
	c1.01,0.56,0.71,1.55,0.74,2.4c0.06,1.42,0.07,2.83,1.03,4.01c1.43,0.71,2.99,0.35,4.48,0.51c0.82,0.09,1.68-0.09,2.38,0.52
	c0.69,0.93,0.09,1.22-0.71,1.31c-0.91,0.09-1.83,0.02-2.59,0.03C416.7,247.25,418.07,246.46,419.2,247.49z"/>
<path class="st104" d="M430.22,238.28c-3.34,3.17-6.97,5.99-10.59,8.82c-1-1.91-0.71-4.1-1.34-6.09c-0.14-0.8-0.05-1.57,0.32-2.31
	c0.15-0.22,0.35-0.38,0.61-0.46C422.88,238.25,426.55,238.27,430.22,238.28z"/>
<path class="st105" d="M410.79,246.08c-1.05-2.57-0.17-5.26-0.51-7.87c-0.17-2.12,0.7-3.04,2.89-2.7c1.04,0.16,2.14,0.17,3.17,0.01
	c2.22-0.34,3.03,0.63,2.86,2.72l-0.22-0.01c-1.28,1.27-2.88,0.57-4.33,0.67c-2.47,0.18-2.97,0.66-3.08,3.16
	C411.53,243.43,412.17,244.96,410.79,246.08z"/>
<path class="st43" d="M544.46,275.62c0.85-0.25,0.74,0.77,1.26,0.96c0.02,3.57,0.05,7.14,0.04,10.71c0,0.78,0.28,1.75-0.89,2.06
	c-0.02-3.37-0.06-6.74-0.05-10.12C544.82,278.01,544.79,276.8,544.46,275.62z"/>
<path class="st95" d="M498.28,368.66c0.14-0.02,0.28-0.04,0.42-0.08c0.62,1.83,0.99,3.68,0.2,5.56c-1.17,2.78-4.1,4.25-7.13,3.58
	c-2.76-0.61-4.74-3.26-4.56-6.27c0.06-0.97,0.39-1.92,0.6-2.89c0.13,0.01,0.25,0,0.38-0.03c0.57-0.06,1.15-0.15,1.59,0.35
	c0.59,0.84,0.23,1.76,0.24,2.66c0.01,2.11,1.18,3.34,3.17,3.38c2.04,0.04,3.13-1.06,3.23-3.27c0.04-0.89-0.3-1.83,0.27-2.67
	C497.13,368.45,497.73,368.68,498.28,368.66z"/>
<path class="st86" d="M504.63,371.63c-0.11,0.83-0.53,1.35-1.29,1.39c-0.8,0.04-1.26-0.46-1.28-1.25c-0.02-0.79,0.43-1.28,1.22-1.32
	C504.11,370.41,504.45,370.98,504.63,371.63z"/>
<path class="st86" d="M483.47,373.08c-0.79-0.09-1.24-0.52-1.23-1.32c0-0.7,0.43-1.17,1.09-1.22c0.77-0.06,1.32,0.41,1.37,1.19
	C484.75,372.53,484.23,372.94,483.47,373.08z"/>
<path class="st87" d="M488.48,379.14c0.69,0.11,1.1,0.5,1.04,1.23c-0.06,0.73-0.53,1.08-1.24,1.05c-0.76-0.04-1.08-0.52-1.03-1.23
	C487.29,379.46,487.73,379.12,488.48,379.14z"/>
<path class="st87" d="M498.11,379.13c0.74-0.01,1.16,0.36,1.18,1.09c0.02,0.71-0.33,1.19-1.08,1.2c-0.71,0.01-1.17-0.37-1.21-1.1
	C496.97,379.6,497.4,379.22,498.11,379.13z"/>
<path class="st106" d="M498.28,368.66c-0.48,0.13-0.97,0.27-1.45,0.4c-0.41,0.23-0.83,0.16-1.25,0.01c-1.6-1.23-3.2-1.04-4.8,0.01
	c-0.43,0.16-0.84,0.01-1.26-0.07c-0.51,0-0.99-0.06-1.35-0.48C491.04,364.54,495.83,364.6,498.28,368.66z"/>
<path class="st98" d="M488.44,364.42c-0.81,0.01-1.26-0.34-1.32-1.04c-0.06-0.69,0.31-1.17,1.01-1.23c0.79-0.07,1.32,0.33,1.35,1.14
	C489.5,363.99,489.02,364.34,488.44,364.42z"/>
<path class="st48" d="M499.21,363.19c-0.03,0.73-0.4,1.17-1.13,1.17c-0.73-0.01-1.11-0.47-1.11-1.19c0-0.63,0.35-1.01,0.99-1.03
	C498.67,362.1,499.11,362.46,499.21,363.19z"/>
<path class="st23" d="M276.22,369.01c2.85-1.99,4.31-1.98,6.98,0.02c1.46,2.85,0.96,5.27-1.35,6.56c-2.09,1.17-4.78,0.37-5.95-1.77
	C274.98,372.15,275.37,370.57,276.22,369.01z"/>
<path class="st90" d="M419.17,240.54c0.82,2.14,0.16,4.38,0.46,6.56c-0.14,0.13-0.29,0.26-0.43,0.39c-2.48,0-4.96,0-7.45,0
	c-0.01-0.21-0.01-0.41-0.02-0.62c2.33-1.03,5.05,0.45,7.33-0.89C417.97,244.15,417.73,242.33,419.17,240.54z"/>
<path class="st107" d="M419.17,240.54c-0.03,1.82-0.07,3.63-0.1,5.45c-2.76,0.03-5.51,0.06-8.27,0.09
	c-0.01-1.75,0.09-3.51-0.05-5.25c-0.15-1.95,0.45-2.82,2.54-2.64c1.89,0.16,3.81,0.04,5.71,0.05
	C419.05,239,419.11,239.77,419.17,240.54z"/>
<path class="st108" d="M413.59,236.87c0.9-0.77,1.85,0.31,2.76-0.08c0.14,0.17,0.11,0.33-0.06,0.46c-0.94,0.11-1.88,0.18-2.72-0.41
	L413.59,236.87z"/>
<path class="st53" d="M416.29,237.25c0.02-0.15,0.04-0.3,0.06-0.46c0.36-0.29,0.91-0.58,0.99,0.04
	C417.42,237.39,416.7,237.21,416.29,237.25z"/>
<path class="st108" d="M413.57,236.84c-0.49,0.7-1.13,0.49-1.84,0.31c0.57-0.78,1.25-0.31,1.86-0.28
	C413.59,236.87,413.57,236.84,413.57,236.84z"/>
<path class="st23" d="M489.53,369.02c0.31-0.16,0.62-0.32,0.94-0.48c1.86-0.69,3.72-0.7,5.58,0.01c0.26,0.17,0.52,0.35,0.79,0.52
	c1.49,3.67,0.2,6.63-3.03,6.99c-3.13,0.35-5.44-2.23-4.76-5.3C489.17,370.17,489.36,369.59,489.53,369.02z"/>
<path class="st75" d="M496.05,368.54c-1.86,0-3.72,0-5.58-0.01C492.33,366.96,494.19,366.95,496.05,368.54z"/>
<path class="st109" d="M412.69,241.57c1.51-0.77,3-0.85,5.12,0.19C415.67,241.65,414.16,241.28,412.69,241.57z"/>
<path class="st110" d="M412.77,239.02c1.89-0.13,3.13-0.22,4.37-0.3C415.93,239.37,414.72,240.05,412.77,239.02z"/>
<path class="st111" d="M415.88,243.73c-1.12,0.04-2.25,0.22-3.52-0.18c1.26-0.42,2.38-0.19,3.49-0.17c0.16,0.07,0.22,0.14,0.17,0.22
	C415.98,243.68,415.93,243.73,415.88,243.73z"/>
<path class="st32" d="M415.88,243.73c-0.01-0.12-0.02-0.23-0.03-0.35c0.48,0.15,0.96,0.3,1.49,0.47
	C416.7,244.49,416.3,244.05,415.88,243.73z"/>
<rect x="-93.73" y="-45.04" class="st0" width="995.05" height="195.85"/>
<rect x="-125.32" y="457.22" class="st1" width="1006.45" height="210.07"/>
</svg>
